<svg xmlns="http://www.w3.org/2000/svg" xmlns:xlink="http://www.w3.org/1999/xlink" width="80" height="80" viewBox="0 0 80 80">
    <defs>
        <linearGradient id="nmgycvkv6c" x1="104.614%" x2="-.047%" y1="40.084%" y2="40.084%">
            <stop offset="0%" stop-color="#97C7FF"/>
            <stop offset="100%" stop-color="#EEF5FF"/>
        </linearGradient>
        <path id="honz6oyfda" d="M80 25.34c0-.97 0-1.94-.006-2.9-.005-.82-.014-1.63-.036-2.45-.023-1.782-.18-3.56-.468-5.32-.302-1.76-.863-3.465-1.667-5.06-1.635-3.198-4.237-5.798-7.437-7.43C68.794 1.372 67.089.81 65.33.51 63.57.224 61.79.067 60.008.04c-.815-.02-1.63-.03-2.445-.03-.967-.01-1.935-.01-2.9-.01H25.337c-.967 0-1.935 0-2.9.01-.816 0-1.63.01-2.446.03-1.782.027-3.56.184-5.32.47-1.76.3-3.466.862-5.058 1.67-3.199 1.632-5.801 4.232-7.436 7.43-.804 1.595-1.366 3.3-1.667 5.06-.29 1.76-.446 3.538-.468 5.32-.022.82-.031 1.63-.036 2.45C0 23.4 0 24.37 0 25.34v29.321c0 .97 0 1.94.006 2.9 0 .82.014 1.63.036 2.45.022 1.783.179 3.562.468 5.32.301 1.76.863 3.466 1.667 5.06 1.635 3.199 4.237 5.799 7.436 7.43 1.592.809 3.297 1.372 5.057 1.671 1.76.291 3.538.448 5.321.47.815.02 1.63.03 2.446.03.967.01 1.935.01 2.9.01H54.66c.967 0 1.935 0 2.9-.01.816 0 1.63-.01 2.445-.03 1.783-.022 3.562-.179 5.322-.47 1.76-.3 3.464-.862 5.056-1.67 3.2-1.632 5.802-4.232 7.437-7.43.804-1.595 1.365-3.3 1.667-5.06.289-1.76.445-3.538.468-5.32.022-.82.031-1.63.036-2.45.006-.96.006-1.93.006-2.9V25.34H80z"/>
    </defs>
    <g fill="none" fill-rule="evenodd">
        <g>
            <g transform="translate(-735 -766) translate(735 766)">
                <mask id="unxahx04ib" fill="#fff">
                    <use xlink:href="#honz6oyfda"/>
                </mask>
                <use fill="#488EFF" xlink:href="#honz6oyfda"/>
                <g fill="url(#nmgycvkv6c)" fill-rule="nonzero" mask="url(#unxahx04ib)">
                    <g>
                        <path d="M18.475 37.08c-5.78-8.671-11.25-3.201-11.88.286-1.027 5.681 2.544 11.363 6.909 15.728 9.24 9.24 24.22 9.24 33.46 0 .68-.679 1.309-1.389 1.888-2.125.734-.933-.349-2.128-1.474-1.748-8.253 2.785-17.737.89-24.314-5.687-1.935-1.935-3.089-4.204-4.59-6.455z" transform="translate(13.333 5.333) rotate(-31 27.754 46.227)"/>
                        <path d="M16.116 13.668c-5.78-8.67-11.25-3.2-11.88.287-1.027 5.681 2.544 11.363 6.909 15.728 9.24 9.24 24.221 9.24 33.461 0 .679-.679 1.308-1.389 1.887-2.125.734-.933-.348-2.128-1.473-1.748-8.253 2.785-17.738.889-24.315-5.688-1.935-1.934-3.088-4.203-4.589-6.454z" transform="translate(13.333 5.333) rotate(149 25.396 22.816)"/>
                    </g>
                </g>
            </g>
        </g>
    </g>
</svg>
