<?xml version="1.0" encoding="UTF-8"?>
<svg width="462px" height="323px" viewBox="0 0 462 323" version="1.1" xmlns="http://www.w3.org/2000/svg" xmlns:xlink="http://www.w3.org/1999/xlink">
    <!-- Generator: Sketch 53.2 (72643) - https://sketchapp.com -->
    <title>hand</title>
    <desc>Created with Sketch.</desc>
    <g id="Page-1" stroke="none" stroke-width="1" fill="none" fill-rule="evenodd">
        <g id="0099.-SignUp-#01" transform="translate(-29.000000, -398.000000)">
            <g id="Group" transform="translate(1.000000, 0.000000)">
                <g id="hand" transform="translate(28.000000, 398.000000)">
                    <path d="M155.170412,39.5401809 C55.3408248,63.0803619 10.9791572,162.175378 115.590299,220.682137 C130.53224,229.038842 214,278.577796 323.42099,253.462303 C352.607326,246.763138 440,179.950227 423,119.5 C406,59.0497727 255,16 155.170412,39.5401809 Z" id="Fill-6" fill="#FFFFFF"></path>
                    <g id="hand-right" transform="translate(277.319131, 123.847627)">
                        <path d="M41.1803337,89.1523727 C38.1803337,108.960117 29.0981548,113.446929 8.03532758,133.152373 C-13.0274996,152.857816 13.0849796,190.701234 41.1808686,178.834489 C63.5406462,169.390483 79.6274429,110.510453 79.6274429,95.9111368 C66.8919035,98.0104532 47.5750062,100.392012 41.1803337,89.1523727 Z" id="Fill-7" fill="#48ADFA"></path>
                        <path d="M58.7563922,14.3925696 C57.6559097,11.8476688 55.7540503,8.94813958 52.7869803,8.26198106 C49.3952369,7.47935274 46.0754482,11.0609643 44.7619236,13.5026016 C38.9491188,24.3180903 38.8560011,33.1117891 40.8636761,42.7030622 C41.4252043,45.3811185 43.4610969,48.2208636 45.8186689,49.8608504 C48.3624765,51.6299165 49.5885268,51.2372436 52.6162644,50.692393 C55.8542224,50.1108567 57.6135835,47.8648764 58.3500602,44.8974107 C59.2304462,41.3429737 59.78492,37.6988606 60.1446931,34.0642586 C60.7697107,27.7366542 61.3608673,20.4035899 58.7563922,14.3925696" id="Fill-14" fill="#E9F5FF"></path>
                        <path d="M56.6375514,20.7722577 C56.1503704,19.254315 55.6240408,17.7567866 55.2644548,16.2023901 C54.9411174,14.7938093 54.9280679,13.2714922 54.307492,11.9649825 C54.230645,11.8045851 54.1102997,11.6966814 53.972555,11.628148 C53.8812086,11.4371293 53.7304145,11.2811063 53.5085731,11.2242382 C50.7188816,10.5024499 51.891886,15.4237336 52.1180772,16.7652391 C52.4544641,18.7395852 52.9938431,22.8734635 55.9212793,22.0437716 C56.4389091,21.8964976 56.8115446,21.3074017 56.6375514,20.7722577" id="Fill-15" fill="#BBCCC6"></path>
                        <path d="M59.2592557,113.723763 C73.5606058,108.931017 80.7112808,102.852746 80.7112808,95.4889494 C80.7112808,84.4432545 74.0675547,78.2727002 58.8805922,78.8030406 C43.6936297,79.3333811 36.6415072,83.5605163 36.6415072,94.6062113 C36.6415072,101.970008 44.1807567,108.342525 59.2592557,113.723763 Z" id="Oval" fill="#136DB0" transform="translate(58.676394, 96.247605) rotate(2.000000) translate(-58.676394, -96.247605) "></path>
                        <path d="M83.7022621,28.3935803 C83.3435394,28.3559851 83.034871,28.6623162 82.9417144,29.0076348 C82.6914427,29.2916873 82.5593549,29.6871328 82.6733675,30.1661231 C84.0137113,35.8151461 82.5343277,41.2942946 81.3427566,46.799899 C80.0469056,46.2930604 78.6704115,45.9533114 77.3634373,45.5063465 C75.7950682,44.9702672 74.2447744,44.2517817 72.8349107,43.3425354 C69.6203104,41.272016 67.8100121,37.5918662 67.9852022,33.7669054 C68.0908725,31.4917011 70.314119,15.4051439 60.0001461,5.05115451 C58.5694265,3.61418342 54.6790926,1.15657297 52.7394873,1.15239573 C49.9864991,1.14404124 47.5338369,3.41367582 48.1358793,6.27090905 C48.7184561,9.03902778 51.6174361,10.9229637 53.0634501,13.2301935 C54.8014477,16.0024895 55.8498078,19.1340282 56.3698167,22.353289 C56.9468319,25.933185 56.8175249,29.61055 56.4212614,33.2029778 C56.024998,36.7856586 55.5286259,40.5103657 54.6081823,44.0011472 C54.1855013,45.6052079 52.1694241,48.667126 50.342441,48.6086446 C49.7139811,48.5877584 47.2752229,49.087635 45.480219,46.0117928 C45.2243857,47.082559 39.6808686,63.4754473 39.6808686,66.5888847 C43.0150432,74.1845022 45.4111096,78.0091673 45.6832171,79.4074466 C48.1358793,92.0109492 48.1358793,97.1523727 43.6540924,104.557226 C41.5662826,108.006726 69.7524702,108.210306 71.2415074,104.557226 C73.4394328,99.1650186 77.3459248,84.3846268 78.2046281,82.6448088 C87.4994393,63.8235508 88.525553,55.1488125 89.1414994,52.7984179 C89.9757382,49.6139674 90.5249455,44.8825451 90.6612045,41.5853091 C90.7752171,38.7935194 90.408152,35.9919827 89.1734785,33.4619667 C88.1570975,31.3830929 86.1590955,28.6483921 83.7022621,28.3935803 Z" id="Fill-60" fill="#F3D2B8"></path>
                        <path d="M79.3723192,17.6308125 C75.9797238,14.4169212 74.2537227,16.5866029 74.1404422,16.8026944 C73.7376674,17.1735351 73.5264904,17.7590732 73.8131877,18.4031651 C76.4410136,24.3045526 77.1137035,30.8556085 75.4676412,36.9507812 C74.8089365,39.3960998 73.7180881,42.0017443 75.0075269,44.5265287 C76.1934749,46.8505573 78.8527373,47.5434994 81.2029866,46.7334497 C86.6157118,44.8678704 88.0538268,25.855024 79.3723192,17.6308125 Z" id="Fill-61" fill="#EEC5A7"></path>
                        <path d="M76.2254266,21.6682319 C74.6872242,16.9733514 72.0838132,12.2798566 67.8333464,10.3647666 C66.376784,9.70931248 64.1491765,10.6446857 64.7958176,12.1592974 C67.1283909,17.6135624 69.7667904,32.3019479 66.6808686,39.059334 C66.019427,40.5077232 67.7094932,43.7402978 69.7667904,44.4400655 C80.6808686,48.1523727 77.8478609,26.6208598 76.2254266,21.6682319 Z" id="Fill-62" fill="#EEC5A7"></path>
                        <path d="M50.6779917,58.4635049 C50.7873701,53.7107274 47.754855,50.9142383 45.5030279,47.0392825 C41.4902092,40.1281784 41.7171693,35.822672 42.2189426,34.2091521 C42.7207158,32.5956322 43.1021729,27.8679354 42.3146487,25.5507648 C41.6324011,23.5401351 39.5296021,22.6762471 37.6209497,23.4119453 C35.8722631,24.0849419 33.709306,25.975742 32.4719632,32.1302474 C29.9070406,44.8907094 34.0141982,56.7064681 38.5616036,65.5014055 C39.4462011,67.2110677 43.3318674,68.1139701 43.4412458,68.098643 C48.0091597,67.397779 50.5768167,62.8331062 50.6779917,58.4635049 Z" id="Fill-63" fill="#EEC5A7"></path>
                        <path d="M42.5253497,25.6755808 C42.2653694,25.0725464 41.3583927,23.6052624 39.3863832,23.1917958 C39.0865196,23.1276114 38.2962386,23.151494 37.9683089,23.1947811 C37.2991551,23.2843406 36.7821489,23.8321466 36.2193507,24.548623 C35.8988068,24.9546264 35.615192,25.3874976 35.3625975,25.836788 C34.5560677,27.0040475 34.0109954,28.3563968 33.7938528,29.810247 C33.621025,30.9461607 33.5560299,32.3074659 34.2813158,33.2762018 C34.9667184,34.1941873 36.1189037,34.3136 37.1455304,33.9882003 C39.5917085,33.2105248 41.4647483,30.6580774 42.2668466,28.3041538 C42.5268269,27.5384196 42.8931627,26.5308746 42.5253497,25.6755808" id="Fill-64" fill="#E9CABB"></path>
                        <path d="M37.4183639,34.0264639 C36.6205401,34.3160792 35.8923164,34.7314485 35.0145813,34.733989 C33.9783126,34.7365295 33.1804888,34.2042979 32.8763104,33.2211302 C32.8440881,33.1157001 32.6855545,33.1372942 32.6829767,33.2465351 C32.5811543,35.8416404 36.1952059,35.3144898 37.5846309,34.4138879 C37.7766757,34.2894041 37.6606755,33.9388172 37.4183639,34.0264639" id="Fill-67" fill="#C99E7D"></path>
                        <path d="M37.4851939,40.6358905 C36.1317554,40.4158905 33.8467632,39.8768905 32.7173691,40.7628905 C32.6269652,40.8318905 32.7186793,40.9438905 32.8379077,40.9218905 C33.5362453,40.7998905 34.1533505,40.6868905 34.8818227,40.7348905 C35.7085601,40.7878905 36.5221955,40.9448905 37.3436921,41.0308905 C37.6751732,41.0668905 37.8323975,40.6928905 37.4851939,40.6358905" id="Fill-68" fill="#C99E7D"></path>
                        <path d="M35.531917,42.5380091 C35.0839846,42.3900091 34.4996574,42.3960091 34.0052268,42.4170091 C33.5681439,42.4350091 33.0210153,42.4580091 32.7203271,42.6860091 C32.6474799,42.7410091 32.6800286,42.8100091 32.7807747,42.8370091 C33.1620598,42.9350091 33.6037925,42.8560091 34.0052268,42.8500091 C34.4640088,42.8430091 34.9336404,42.9220091 35.3846728,42.8920091 C35.6481625,42.8740091 35.8186558,42.6330091 35.531917,42.5380091" id="Fill-69" fill="#C99E7D"></path>
                        <path d="M59.3282969,4.57817971 C58.5327335,3.61658614 57.2174406,2.82451362 56.1823371,2.15519773 C54.9846367,1.38066187 53.7491906,0.648506277 52.4092179,0.166248102 C51.9736904,0.00987954198 50.1154401,1.20967943 49.780084,2.02659555 C49.4055304,2.9399633 50.1706069,3.80948941 50.7571171,4.42181115 C52.3221124,6.054182 54.5099118,7.03185085 56.7586851,7.13999359 C57.6123188,7.18237385 58.6764575,7.1516847 59.2949065,6.4575252 C59.8001183,5.88904511 59.8073771,5.15688952 59.3282969,4.57817971" id="Fill-70" fill="#E9CABB"></path>
                        <path d="M52.3351407,0.161158602 C51.6783966,0.0796694427 51.1105143,0.581249267 50.6509323,0.994315005 C50.0552807,1.52680451 49.7470414,1.95532509 49.6928912,2.28549668 C49.6165256,2.73649703 49.9289303,3.15237274 49.9289303,3.15237274 C49.9289303,3.15237274 50.6356592,1.96235002 51.1965992,1.44672034 C51.6534042,1.02662967 52.6808686,0.298847181 52.6808686,0.298847181 C52.6808686,0.298847181 52.4323333,0.173803471 52.3351407,0.161158602" id="Fill-71" fill="#FFFFFE"></path>
                        <path d="M60.3141191,6.34764935 C59.6346052,9.5171816 57.4054987,8.30401581 55.7844444,8.07449796 C55.6778785,8.0599254 55.6427745,8.29308639 55.7305346,8.36230606 C57.2600677,9.54632673 60.3040893,9.74487788 60.6776966,6.49337497 C60.7165618,6.15091977 60.3868346,6.00519414 60.3141191,6.34764935" id="Fill-73" fill="#D9AC88"></path>
                        <path d="M67.5321267,20.229823 C66.005393,20.054823 64.0507234,20.395823 62.7604806,20.907823 C62.5996024,20.972823 62.7009557,21.160823 62.9004446,21.113823 C63.5986558,20.943823 64.2711265,20.758823 65.0031221,20.653823 C65.8236007,20.535823 66.6505144,20.547823 67.4774281,20.479823 C67.6833522,20.461823 67.7830966,20.257823 67.5321267,20.229823" id="Fill-74" fill="#D9AC88"></path>
                        <path d="M66.4293211,21.4029764 C65.5204189,21.3629764 64.5327006,21.4509764 63.7512459,21.7459764 C63.6087059,21.7999764 63.7009377,21.9319764 63.8652779,21.9079764 C64.7305796,21.7879764 65.5338345,21.6889764 66.4293211,21.7159764 C66.7680632,21.7259764 66.7613555,21.4189764 66.4293211,21.4029764" id="Fill-75" fill="#D9AC88"></path>
                        <path d="M75.5996231,21.6395291 C74.7011898,21.2995291 73.6138611,21.3615291 72.7343173,21.7055291 C72.6233413,21.7485291 72.7024413,21.8935291 72.8145978,21.8685291 C73.7472685,21.6535291 74.5500735,21.7015291 75.4768412,21.8875291 C75.6433052,21.9205291 75.7708095,21.7055291 75.5996231,21.6395291" id="Fill-76" fill="#D9AC88"></path>
                        <path d="M76.5622764,22.5997458 C75.7482979,22.3817458 74.6790888,22.3987458 73.8340687,22.5497458 C73.6081551,22.5907458 73.6357476,22.8207458 73.8927027,22.8017458 C74.3203864,22.7727458 74.7394473,22.7437458 75.17058,22.7587458 C75.5982637,22.7737458 76.0104265,22.8367458 76.4363857,22.8677458 C76.67782,22.8847458 76.7778428,22.6577458 76.5622764,22.5997458" id="Fill-77" fill="#D9AC88"></path>
                        <path d="M83.5976931,24.7354385 C82.8003755,24.4194385 81.6279885,24.2144385 80.7551853,24.3664385 C80.6537514,24.3844385 80.6584693,24.5154385 80.7551853,24.5354385 C81.1998432,24.6314385 81.6669108,24.6394385 82.1198249,24.7084385 C82.5786363,24.7774385 83.0185763,24.9064385 83.4726699,24.9864385 C83.6413332,25.0174385 83.7734332,24.8064385 83.5976931,24.7354385" id="Fill-78" fill="#C99E7D"></path>
                        <path d="M83.4920996,25.5590208 C82.6652502,25.4510208 81.6695123,25.4290208 80.8285888,25.4670208 C80.6649781,25.4740208 80.6174783,25.6070208 80.7881259,25.6350208 C81.5938644,25.7690208 82.5790467,25.8660208 83.4217295,25.8540208 C83.7102472,25.8500208 83.7911729,25.5980208 83.4920996,25.5590208" id="Fill-79" fill="#C99E7D"></path>
                        <path d="M51.7660409,79.8522177 C50.0363104,81.2217383 46.9430064,84.0581326 46.2605635,90.8215384 C45.8091012,95.3010943 48.1359692,99.624096 50.6518215,103.157749 C53.2096702,106.750602 56.766248,109.867216 61.0000192,111.260417 C66.4299575,113.048166 73.0876699,111.220095 76.563186,106.856343 L79.1543618,106.232016 C77.3034472,111.635557 72.5561081,117.899543 65.8176039,119.224697 C45.1477347,123.289512 29.7259733,94.44142 40.4703429,79.3685558 C45.1477347,72.806822 55.302597,67.6686293 65.6736021,76.7193927 C65.6736021,76.7193927 65.3092279,77.1262821 64.688253,77.6830169 C64.4874265,77.8630678 64.1310821,78.1558116 63.6192197,78.5612482 C59.0354659,76.7098818 55.4459834,76.9382041 51.7660409,79.8522177 Z" id="Fill-83" fill="#1991EB" transform="translate(58.053969, 95.729863) rotate(-59.000000) translate(-58.053969, -95.729863) "></path>
                    </g>
                    <g id="laptop" transform="translate(139.000000, 5.000000)">
                        <path d="M0.784909517,10.7128889 C6.8095765,11.1752236 153.670071,11.0023506 163.248748,10.7303102 C164.010023,7.193785 164.109016,5.50659846 163.912423,4.74810157 C162.883448,0.793464974 159.647333,0.12341472 155.149398,0.0858919061 C128.154819,-0.139244979 19.5044603,0.14753653 18.4420219,0.163617736 C15.5321677,0.206500952 11.3786192,0.348551606 7.64614216,0.49194236 C2.95858594,0.674196029 -0.387676674,2.51013373 0.0361832571,6.00243565 C0.192342179,7.28089153 0.499082919,8.95735727 0.784909517,10.7128889" id="Fill-16" fill="#C3D8D2"></path>
                        <path d="M9.08817711,161.450998 C9.08817711,165.70108 9.08817711,172 21.0473283,171.978221 C37.6061635,171.948066 138.534452,172 141.673947,172 C148.581691,172 151.955902,164.69873 152,160 C146.265833,160.005445 9.08817711,157.200916 9.08817711,161.450998 Z" id="Fill-17" fill="#BBCCC6"></path>
                        <path d="M96.4429688,162.000742 C91.6528844,161.986184 86.8641912,162.191604 82.0657593,162.118817 C79.8300156,162.08485 77.5942718,162.168959 75.3585281,162.227188 C73.1575657,162.2838 70.724264,162.126905 68.6944258,163.208995 C67.77759,163.69909 67.7595037,165.568891 68.6944258,166.050899 C70.6338326,167.052116 72.8918364,166.922718 74.9870635,166.948597 C77.3466288,166.976094 79.706194,167.037558 82.0657593,166.968007 C86.8628,166.828904 92.370771,167.07476 95.3438789,166.644512 C98.0262149,166.257936 99.1545211,162.008829 96.4429688,162.000742" id="Fill-18" fill="#71807C"></path>
                        <path d="M162.995647,7.18471997 C162.895305,4.37920494 159.25929,2.12679293 154.762005,2.08817227 C127.779687,1.85644832 19.1786765,2.15299981 18.1181143,2.16817221 C15.2081881,2.21368941 11.0565262,2.35851688 7.32574438,2.50748228 C2.64031724,2.69368903 -0.364376674,5.29506629 0.0355988139,8.2619605 C1.75117312,20.9653987 9.05107418,60.1088161 11.322712,62.4991591 C12.6703646,63.9157097 15.1747407,64.7474331 17.8129066,64.7695021 C35.6348109,64.9184675 52.1829257,64.9019158 69.3428497,64.9184675 C69.9323606,64.9184675 90.2711838,65.1019156 94.698787,64.9184675 C98.1578085,64.7750193 141.582325,65.0660536 144.814183,64.795709 C148.663424,64.4743299 151.289047,62.4384695 151.605404,60.1722643 C151.852079,58.3901968 163.254864,14.4302315 162.995647,7.18471997" id="Fill-19" fill="#2B2E2C"></path>
                        <path d="M129.208639,63.27217 C103.142699,62.8206524 77.0823342,62.9753006 51.0177879,63.4116295 C47.3872595,63.4723842 43.756731,63.5400428 40.1275963,63.6159861 C36.5193667,63.6905486 32.5933787,63.5165694 29.1830512,64.8366024 C27.6597623,65.4261988 27.5524492,67.4642415 29.1830512,68.0179374 C32.1878187,69.0424819 35.4378733,68.8643603 38.5708591,68.8519332 C41.8125517,68.8408869 45.0542443,68.7677051 48.2959368,68.7331854 C54.7779283,68.6613845 61.2613135,68.6130569 67.7460923,68.5882027 C80.8410809,68.5357328 93.9402505,68.6600037 107.036633,68.7677051 C114.427302,68.8284598 121.81797,68.9030223 129.208639,68.9996775 C132.93115,69.0493858 132.929757,63.337067 129.208639,63.27217" id="Fill-20" fill="#2B2E2C"></path>
                        <path d="M148.752875,64.396113 C147.587299,63.0712799 144.557908,62.4642957 140.412717,62.1414022 C139.287238,62.0527105 135.236067,61.8836418 132.709962,62.1220009 C131.382616,62.2481095 130.28479,63.2084749 129.979224,64.5097493 C129.834045,65.1222767 129.807775,65.7999372 129.683336,66.3431742 C129.521566,67.0540941 128.889694,67.5529852 128.162419,67.547442 C102.974644,67.3437281 77.7647469,67.2550363 52.5811202,67.5432846 C46.10616,67.6181182 39.5330316,67.3963888 33.0580715,67.8620206 C32.1800873,67.924382 31.4113327,67.2813667 31.3297563,66.4013782 C31.3062512,66.142232 31.2896593,65.8830857 31.2841287,65.6516557 C31.2537104,64.4390731 31.2149961,62.9410138 29.9664612,62.9728874 C23.4251338,63.1377987 12.6846917,62.9202267 10.8720347,68.9540378 C9.73134663,72.7525395 8.76487299,144.70266 9.19072963,161 C9.33451233,166.502498 12,167 14.4191751,167 C29.803328,167 58.9700224,166.684255 70.1338895,166.702055 C70.7201341,166.703441 71.5635519,165.720902 72.0405669,165.076501 C72.2977402,164.727277 72.6904134,164.506934 73.1231835,164.481989 C77.7799561,164.207599 88.8591479,164.342023 92.0931714,164.419628 C92.4609569,164.429329 92.8093852,164.576224 93.0679412,164.838142 C93.7454407,165.525503 94.4658025,166.566246 95.2912459,166.702055 C98.6842743,167.25915 141.803665,166.943186 145.010035,166.502498 C148.828921,165.978663 151.43522,162.667966 151.747699,158.980329 C151.993812,156.079831 152.087832,138.058775 151.902556,108.209841 C151.877669,104.264444 151.530623,67.5529852 148.752875,64.396113 Z" id="Fill-21" fill="#DDE9E4"></path>
                        <path d="M145.928763,120.904133 C145.731354,120.283149 143.540381,78.6813496 143.416653,76.6548334 C143.391629,76.2154315 143.374946,75.0233631 143.365215,73.7938694 C143.351313,71.8879461 141.808179,70.3479602 139.898029,70.3340989 C126.011213,70.2384562 73.7184344,69.894697 46.9999731,70.0319235 C38.1610129,70.0762795 29.3220527,70.0942991 20.4872631,70.3673659 C19.8171815,70.3881578 19.2054887,70.8788464 19.1053935,71.5428008 C18.9455193,71.7368584 18.8370828,71.9877472 18.8092786,72.2788337 C17.9918347,80.6704404 17.4538231,113.943008 17.0020046,122.352635 C16.9533472,123.249458 17.7985954,123.991036 18.653575,123.999352 C20.4636295,124.018758 55.0409524,123.59599 70.1289101,123.539159 C85.8702669,123.480941 101.611624,123.432427 117.355761,123.284111 C126.332352,123.199558 135.308943,123.09144 144.285534,123.054015 C145.358777,123.049856 146.265194,121.967292 145.928763,120.904133" id="Fill-22" fill="#FFFFFE"></path>
                        <rect id="Rectangle" fill="#BBCCC6" x="49" y="129" width="70" height="29" rx="4"></rect>
                        <path d="M146.428875,65.5849686 C146.035591,65.2261002 145.552565,65 145.00883,65 C144.49413,65 143.954354,65.2221566 143.590105,65.5849686 C143.206059,65.9674986 143.025255,66.4683368 143.001499,66.9994094 C142.977744,67.5317965 143.239053,68.0326347 143.590105,68.4125357 C143.950395,68.8042674 144.476973,68.9685844 144.992993,68.9975042 C145.450944,69.0237949 145.873262,68.8397599 146.225634,68.5689655 C146.66115,68.2337588 146.906622,67.8078491 146.980528,67.2649457 C147.061032,66.6615736 146.894744,66.0121928 146.428875,65.5849686" id="Fill-24" fill="#BBCCC6"></path>
                        <path d="M111.987946,118.329963 L111.020445,109.8658 C110.905727,108.882798 110.029447,108.135199 108.973489,108.126145 C103.856788,108.079582 89.0899535,107.96188 77.0514723,108.012324 C66.7448185,108.0563 50.302824,108.202457 44.7396912,108.252901 C43.658854,108.263248 42.7687527,109.047063 42.6885883,110.055933 L42.0058088,118.659786 C41.9173515,119.77601 42.8502993,120.730556 44.0444724,120.746078 C49.6048409,120.82239 64.2459007,121.009936 70.84426,120.999589 C79.4370542,120.985361 88.0298484,120.97372 96.6240247,120.938798 C100.138819,120.923277 106.637664,120.63743 110.030829,120.477045 C111.220856,120.421428 112.115104,119.43972 111.987946,118.329963" id="Fill-26" fill="#141514"></path>
                        <path d="M111.988177,117.331023 L111.019271,108.865157 C110.905933,107.883401 110.029633,107.134473 108.97365,107.125418 C103.856833,107.078853 89.0896591,106.961145 77.0509018,107.012885 C66.7440117,107.05557 50.3016401,107.203027 44.7397618,107.253473 C43.6575177,107.263821 42.767396,108.047674 42.6872298,109.056593 L42.0058167,117.660862 C41.9173574,118.775847 42.8489444,119.73044 44.0431449,119.747255 C49.6050231,119.822277 64.2450366,120.011126 70.8435471,119.999485 C79.4365384,119.98655 88.0295297,119.974909 96.6239031,119.938691 C100.138778,119.924463 106.637772,119.638602 110.029633,119.476917 C111.221069,119.421297 112.113955,118.440834 111.988177,117.331023" id="Fill-27" fill="#2B2E2C"></path>
                        <path d="M130.998651,110.972992 L130.902189,107.71646 C130.891638,107.339256 130.802712,107.051463 130.698714,107.047272 C130.186257,107.030507 128.709176,106.984404 127.506411,107.00536 C126.475469,107.020728 124.831086,107.078007 124.27492,107.097566 C124.1664,107.10036 124.077474,107.402123 124.069937,107.790504 L124.000605,111.100124 C123.991562,111.529019 124.08501,111.896444 124.205588,111.902032 C124.760247,111.93137 126.225269,112.004017 126.883927,111.999826 C127.744552,111.994238 128.603671,111.990047 129.462789,111.976076 C129.813972,111.970488 130.463586,111.860121 130.802712,111.79865 C130.921783,111.777695 131.012216,111.40049 130.998651,110.972992" id="Fill-28" fill="#141514"></path>
                        <path d="M130.998631,118.97299 L130.902149,115.717851 C130.891596,115.339249 130.804158,115.051455 130.697122,115.048661 C130.186064,115.030499 128.710177,114.984396 127.505649,115.005352 C126.474487,115.022117 124.831263,115.077999 124.274979,115.097558 C124.164928,115.100352 124.07749,115.402116 124.068445,115.790498 L124.000605,119.100122 C123.99156,119.529018 124.085028,119.896444 124.204124,119.902032 C124.760408,119.93137 126.224235,120.004017 126.88454,119.999826 C127.743841,119.994238 128.604649,119.990047 129.462443,119.976076 C129.813701,119.970488 130.46496,119.86012 130.804158,119.79865 C130.923254,119.777694 131.012199,119.400489 130.998631,118.97299" id="Fill-29" fill="#141514"></path>
                        <path d="M122.998651,118.97299 L122.902168,115.717851 C122.891615,115.339249 122.80267,115.051455 122.697141,115.048661 C122.186083,115.030499 120.710194,114.984396 119.505663,115.005352 C118.4745,115.022117 116.829766,115.077999 116.27348,115.097558 C116.164937,115.100352 116.075992,115.402116 116.068454,115.790498 L116.000614,119.100122 C115.991569,119.529018 116.083529,119.896444 116.202626,119.902032 C116.760418,119.93137 118.224247,120.004017 118.884553,119.999826 C119.743855,119.994238 120.603158,119.990047 121.46246,119.976076 C121.813718,119.970488 122.464979,119.86012 122.80267,119.79865 C122.921766,119.777694 123.012219,119.400489 122.998651,118.97299" id="Fill-30" fill="#141514"></path>
                        <path d="M139.998651,118.97299 L139.900682,115.717851 C139.891638,115.339249 139.802712,115.051455 139.697206,115.048661 C139.186257,115.030499 137.707669,114.984396 136.504904,115.005352 C135.473962,115.022117 133.829579,115.077999 133.27492,115.097558 C133.1664,115.100352 133.077474,115.402116 133.06843,115.790498 L133.000605,119.100122 C132.991562,119.529018 133.08501,119.896444 133.204081,119.902032 C133.760247,119.93137 135.225269,120.004017 135.883927,119.999826 C136.744552,119.994238 137.602163,119.990047 138.461282,119.976076 C138.813972,119.970488 139.463586,119.86012 139.802712,119.79865 C139.921783,119.777694 140.012216,119.400489 139.998651,118.97299" id="Fill-31" fill="#141514"></path>
                        <path d="M130.998651,110.973156 L130.902189,107.717134 C130.891638,107.339988 130.802712,107.05224 130.698714,107.04805 C130.186257,107.031288 128.709176,106.985192 127.506411,107.004748 C126.475469,107.02151 124.831086,107.077384 124.27492,107.096939 C124.1664,107.10113 124.077474,107.402846 124.069937,107.791166 L124.000605,111.100268 C123.991562,111.529096 124.08501,111.895067 124.205588,111.902051 C124.760247,111.929987 126.225269,112.00402 126.883927,111.999829 C127.744552,111.994242 128.603671,111.988654 129.462789,111.976083 C129.813972,111.970496 130.463586,111.860146 130.802712,111.798685 C130.921783,111.776336 131.012216,111.39919 130.998651,110.973156" id="Fill-32" fill="#2B2E2C"></path>
                        <path d="M130.998631,117.973174 L130.902149,114.717221 C130.891596,114.340083 130.804158,114.052342 130.697122,114.048151 C130.186064,114.029993 128.710177,113.985295 127.505649,114.00485 C126.474487,114.021612 124.831263,114.077484 124.274979,114.097039 C124.164928,114.10123 124.07749,114.40294 124.068445,114.791252 L124.000605,118.100283 C123.99156,118.529103 124.085028,118.895066 124.204124,118.90205 C124.760408,118.931383 126.224235,119.004016 126.88454,118.999826 C127.743841,118.994239 128.604649,118.988652 129.462443,118.97608 C129.813701,118.970493 130.46496,118.860146 130.804158,118.798686 C130.923254,118.776337 131.012199,118.3992 130.998631,117.973174" id="Fill-33" fill="#2B2E2C"></path>
                        <path d="M122.998651,117.973174 L122.902168,114.717221 C122.891615,114.340083 122.80267,114.052342 122.697141,114.048151 C122.186083,114.029993 120.710194,113.985295 119.505663,114.00485 C118.4745,114.021612 116.829766,114.077484 116.27348,114.097039 C116.164937,114.10123 116.075992,114.40294 116.068454,114.791252 L116.000614,118.100283 C115.991569,118.529103 116.083529,118.895066 116.202626,118.90205 C116.760418,118.931383 118.224247,119.004016 118.884553,118.999826 C119.743855,118.994239 120.603158,118.988652 121.46246,118.97608 C121.813718,118.970493 122.464979,118.860146 122.80267,118.798686 C122.921766,118.776337 123.012219,118.3992 122.998651,117.973174" id="Fill-34" fill="#2B2E2C"></path>
                        <path d="M139.998651,117.973174 L139.900682,114.717221 C139.891638,114.340083 139.802712,114.052342 139.697206,114.048151 C139.186257,114.029993 137.707669,113.985295 136.504904,114.00485 C135.473962,114.021612 133.829579,114.077484 133.27492,114.097039 C133.1664,114.10123 133.077474,114.40294 133.06843,114.791252 L133.000605,118.100283 C132.991562,118.529103 133.08501,118.895066 133.204081,118.90205 C133.760247,118.931383 135.225269,119.004016 135.883927,118.999826 C136.744552,118.994239 137.602163,118.988652 138.461282,118.97608 C138.813972,118.970493 139.463586,118.860146 139.802712,118.798686 C139.921783,118.776337 140.012216,118.3992 139.998651,117.973174" id="Fill-35" fill="#2B2E2C"></path>
                        <path d="M136.639883,86 C137.979284,86 139.048043,84.9337505 138.998334,83.651602 C138.923769,81.675398 138.871298,79.7468771 138.857489,79.5044875 C138.832634,79.1243463 138.818826,78.0872366 138.810541,77.018338 C138.798114,75.3613465 137.40348,74.0222431 135.676066,74.0103223 C123.12712,73.9268767 73.9338126,74.3732445 49.7886892,74.491128 C44.4048486,74.5176187 33.5819345,74.3639728 27.0989564,74.5030488 C24.2033643,74.5653019 21.9167164,76.8752884 22.0023276,79.6528352 C22.03961,80.8674325 22.0658456,82.2449474 22.0824156,83.7376967 C22.0962238,84.9840828 23.1511749,85.9854301 24.4505321,85.980132 C39.2101812,85.9112563 115.343403,85.9933773 136.639883,86" id="Fill-36" fill="#141514"></path>
                        <path d="M141.988176,97.5092373 C141.868119,95.8504725 141.750854,94.5178917 141.643361,93.0633234 C141.559601,91.9468726 140.487465,91.0823525 139.204533,91.1022418 C125.49153,91.3183718 67.0573608,90.9921879 54.4848984,91.0001436 C53.1768374,91.0014695 52.1130781,91.9150498 52.0865539,93.0540418 C52.0125654,96.3119035 52.0013973,98.2345325 52.0000013,101.903439 C51.9986053,103.072928 53.0972649,104.017005 54.4388301,103.999768 C76.1509673,103.71734 119.853048,103.094143 136.136104,102.988067 C139.529803,102.965526 142.200369,100.460804 141.988176,97.5092373" id="Fill-37" fill="#141514"></path>
                        <path d="M24.3665831,108.020241 C23.2461317,108.032261 22.3384583,108.924432 22.3115244,110.035638 C22.2105222,114.27612 22.0973997,117.739291 22.0017842,119.522296 C21.9586899,120.30762 22.703413,120.95805 23.457563,120.966063 C23.9558407,120.971406 28.9062965,121.011473 34.1624525,120.996782 C36.8181377,120.988768 39.0415334,118.997411 39.3189529,116.37833 C39.5236507,114.43639 39.7660561,112.254045 39.9869143,110.296077 C40.1242773,109.075353 39.1627361,108.006885 37.9237754,108.006885 C34.3886975,108.004214 27.8572201,107.986852 24.3665831,108.020241" id="Fill-38" fill="#141514"></path>
                        <path d="M23.112688,92.8035953 C23.0964372,95.8636698 23.0558103,99.0855563 23.0002868,102.176949 C22.9813275,103.185665 23.9049135,104.007774 25.0451765,103.999945 C29.8689496,103.967321 41.0413606,103.964711 45.6335601,103.958187 C46.7386131,103.956882 47.6378229,103.175225 47.6621991,102.199133 C47.7420988,99.0437983 47.796268,96.041141 47.9966943,92.9040754 C48.0630517,91.8614317 47.1218607,90.9858197 45.9409707,91.000174 C41.5248213,91.0549813 31.537363,91.1384972 25.1860166,91.0171382 C24.0511705,90.9962592 23.1167507,91.8000997 23.112688,92.8035953" id="Fill-39" fill="#141514"></path>
                        <path d="M138.998336,82.651602 C138.92239,80.675398 138.8713,78.7468771 138.857491,78.5044875 C138.832636,78.1243463 138.818828,77.0872366 138.809162,76.018338 C138.798116,74.3613465 137.403482,73.0222431 135.676068,73.0103223 C123.127121,72.9268767 73.9324327,73.3732445 49.7873089,73.491128 C44.4034682,73.5176187 33.5819347,73.3639728 27.0989565,73.5030488 C24.2033643,73.5653019 21.9167164,75.8752884 22.0023276,78.6528352 C22.0382291,79.8674325 22.0644648,81.2449474 22.0824156,82.7376967 C22.0962238,83.9840828 23.1511749,84.9854301 24.4505322,84.980132 C39.2088007,84.9112563 115.343405,84.9933773 136.639885,85 C137.977905,85 139.048045,83.9337505 138.998336,82.651602 Z" id="Fill-40" fill="#2B2E2C"></path>
                        <path d="M140.988025,95.5098828 C140.869362,93.8509536 140.752096,92.5169145 140.643205,91.063528 C140.56084,89.9469665 139.48869,89.0823607 138.205739,89.102252 C124.492547,89.3184034 66.0575691,88.9921871 53.4849328,89.0001436 C52.1768537,89.0014697 51.1130797,89.9151406 51.0865551,91.0555715 C51.0125656,94.3124303 51.0013974,96.23525 51.0000013,99.9045204 C50.9986053,101.074125 52.09728,102.018296 53.4388638,101.999731 C75.1499054,101.719927 118.853986,101.095343 135.137267,100.989256 C138.531014,100.966713 141.201617,98.4617426 140.988025,95.5098828" id="Fill-41" fill="#2B2E2C"></path>
                        <path d="M24.3652364,107.020241 C23.2461317,107.032261 22.3371116,107.924432 22.3115244,109.035638 C22.2105222,113.27612 22.0973997,116.739291 22.0017842,118.522296 C21.9586899,119.30762 22.703413,119.95805 23.457563,119.966063 C23.9558407,119.971406 28.9049498,120.011473 34.1611058,119.996782 C36.8181377,119.988768 39.0401867,117.997411 39.3176062,115.37833 C39.5236507,113.43639 39.7660561,111.254045 39.9869143,109.296077 C40.1242773,108.075353 39.1627361,107.006885 37.9237754,107.006885 C34.3886975,107.004214 27.8572201,106.986852 24.3652364,107.020241" id="Fill-42" fill="#2B2E2C"></path>
                        <path d="M23.1126493,90.8035953 C23.0977527,93.8636698 23.0571257,97.0855563 23.0002479,100.176949 C22.9826429,101.185665 23.9048759,102.007774 25.0464947,101.999945 C29.8689202,101.967321 41.0427009,101.964711 45.6349067,101.958187 C46.738607,101.956882 47.6391722,101.175225 47.6635484,100.199133 C47.742094,97.0437983 47.7962633,94.041141 47.9966899,90.9027704 C48.0630473,89.8614317 47.1232093,88.9858197 45.9423177,89.000174 C41.5261622,89.0549813 31.5373359,89.1384972 25.1859808,89.0171382 C24.0511331,88.9962592 23.1180662,89.8000997 23.1126493,90.8035953" id="Fill-43" fill="#2B2E2C"></path>
                    </g>
                    <g id="hand-left" transform="translate(99.000000, 194.000000)">
                        <circle id="Oval" fill="#136DB0" cx="58" cy="56" r="20"></circle>
                        <path d="M80,67 C65.0689509,39.3251998 57.2272756,25.5787146 56.4749742,25.7605444 C51.377335,26.9926338 12.5160603,49.3730804 3,73 C-5.78201563,94.8043992 7.23930165,116 28.8307636,116 C51.8004706,116 54,75.2539181 80,67 Z" id="Fill-80" fill="#48ADFA"></path>
                        <path d="M72.3131894,68.1466751 C83.3588844,68.1466751 90.325914,59.312167 90.325914,48.266472 C90.325914,37.220777 79.045695,27 68,27 C56.954305,27 48,35.954305 48,47 C48,58.045695 61.2674944,68.1466751 72.3131894,68.1466751 Z" id="Oval" fill="#136DB0"></path>
                        <path d="M121.217026,5.18085601 C106,6 95.1852645,10 71.5,32.5523638 C67.8754972,36.0035013 58.4337715,40.5737863 52.7653101,41.5 C48.3765401,46.4889156 59.6398716,68.996809 72.8043443,65 C79.0876582,58.4038721 86.1127496,50.0344108 95.1852645,55.7033854 C97.7176072,57.2857235 105.087618,57.1716764 107.913296,54.8724599 C114.189963,49.7624752 102.853691,41.1883777 104,32.5523638 C104.739803,26.9788636 114.56293,16.8863054 130.023745,19.4620362 C138.156929,20.8197215 148.86761,24.7724937 153.971301,23.7369476 C154.202846,23.6899402 155.582409,23.6443153 155.872187,22.1179563 C157.286032,11 131.575064,4.62327504 121.217026,5.18085601 Z" id="Fill-84" fill="#FEDCC3"></path>
                        <path d="M155.700109,20 C155.700109,17.2883339 152.209907,12.9959221 150.65471,13.3761204 C148.409944,13.9248972 148.866853,18.405702 150.168335,19.5976288 C153.176082,22.3521922 155.700109,22.7116661 155.700109,20 Z" id="Fill-85" fill="#E9CABB"></path>
                        <path d="M155.837401,20.4444913 C156.0677,20.2305581 155.985883,19.3828681 155.985883,19.3828681 C155.985883,19.3828681 155.09499,19.9378075 154.628332,20.0230591 C154.198037,20.1018765 153.760166,20.1195703 153.329871,20.0407528 C152.960181,19.9731949 152.598066,19.8605985 152.264739,19.6772273 C151.911715,19.4825963 151.622327,19.175369 151.255667,19.014517 C151.131426,18.9598273 150.955672,19.0659897 151.010217,19.2268417 C151.576873,20.8916599 154.635908,21.5720638 155.837401,20.4444913" id="Fill-87" fill="#FFFFFE"></path>
                        <path d="M102.853691,41.1883777 C105.606829,45.0625051 107.157505,48.1590243 108.892707,52.3478524 C111.989857,59.8239024 115.63834,62.2557187 117.266694,62.8269225 C118.896473,63.3981263 122.986592,65.9615435 124.377033,68.0111572 C125.583696,69.7877691 124.962557,72.0291841 123.158973,73.1393915 C121.507824,74.1557983 118.604424,74.7690024 112.814719,72.0375842 C100.810769,66.3717462 93.3989456,59.4698174 89.8188341,50.1620604 C86.4870816,41.5 98.5625094,35.149964 102.853691,41.1883777 Z" id="Fill-88" fill="#EEC5A7"></path>
                        <path d="M122.164094,66.4841192 C119.735998,65.773083 116.472478,65.7390296 114.301907,67.1066163 C113.391371,67.6800765 112.76442,68.592709 113.084793,69.6034155 C113.423562,70.6699697 114.577827,71.372833 115.612527,71.8740998 C116.938476,72.5156669 118.385523,72.8630121 119.849432,72.9161355 C120.37368,72.9774317 120.905592,73.0087609 121.439037,72.9978638 C122.377165,72.980156 123.151274,72.9025141 123.644864,72.4611813 C123.885528,72.2432392 124.399046,71.6765898 124.537006,71.4205078 C125.436811,69.74644 124.805261,68.2685201 124.47569,67.7454591 C124.008159,67.0044559 122.951999,66.7143205 122.164094,66.4841192" id="Fill-89" fill="#E9CABB"></path>
                        <path d="M118.161422,66.1619315 C117.471688,65.7786498 116.53562,66.1494162 115.935343,66.5123606 C115.174302,66.9754275 114.33936,67.7811013 114.086544,68.8449037 C113.776682,70.1386751 114.341953,70.9146251 115.097809,71.765667 C115.617702,72.3523227 116.425418,72.9952974 117.038659,72.9999906 C117.701167,73.0031195 117.89953,72.2209118 118.171794,71.6311273 C118.756512,70.3608221 119.704249,67.0223599 118.161422,66.1619315" id="Fill-90" fill="#FFFFFE"></path>
                        <path d="M122.886339,71.1628615 C122.629987,72.2983257 121.799215,73.6347032 120.485804,73.9299848 C120.346551,73.9634703 120,74 120,74 C120,74 121.500137,73 121.840358,70.9162861 C122.123612,69.1811263 120.677277,67 120.677277,67 C120.677277,67 121.563434,67.2678843 121.849852,67.5479452 C122.87368,68.5555556 123.198077,69.7762557 122.886339,71.1628615" id="Fill-91" fill="#FFFFFE"></path>
                        <path d="M107.973015,62.4326783 C107.417641,63.9795535 106.645053,66.7529259 105.130732,66.9988725 C105.012252,67.0166713 104.954246,66.8192668 105.043106,66.7221825 C105.560222,66.155858 106.024268,65.6591104 106.393283,64.8969993 C106.810431,64.0313317 107.121441,63.0782884 107.502798,62.1851136 C107.658303,61.8242839 108.114944,62.0362511 107.973015,62.4326783" id="Fill-93" fill="#FEDCC3"></path>
                        <path d="M105.994846,63.2607468 C105.90696,63.6711568 105.553903,64.0507861 105.237212,64.3611587 C104.955372,64.6343379 104.605346,64.9780564 104.150766,64.9998594 C104.043182,65.003707 103.978025,64.9280376 104.006815,64.8408255 C104.114399,64.5150625 104.468972,64.2842068 104.714445,64.026418 C104.994769,63.7275882 105.176601,63.3569366 105.479655,63.0837574 C105.656941,62.923441 106.049395,62.9991103 105.994846,63.2607468" id="Fill-94" fill="#FEDCC3"></path>
                        <path d="M146.882445,16.0589961 C146.820619,16.0002031 146.741932,15.9509811 146.640762,15.9167992 C144.320888,15.1360834 140.973863,14.0053444 140.545297,11.5620184 C140.396353,10.7074696 140.515789,9.82694252 140.538271,8.96829188 C140.583236,7.28517254 140.920467,5.51318012 140.781359,3.84236628 C140.577615,1.41954949 139.700777,0.202671984 136.587039,0.0673114523 C133.473301,-0.0680490795 132,0.719371029 132,3.84236628 C132,6.96536154 132.160871,8.33114028 131.291094,11.1942206 C130.598364,13.4693714 128.33048,14.3950187 126.148309,15.3726225 C102.639204,21 102.639204,44.9188225 110.704497,56.6767266 C118.423514,67.9298145 133.610968,72.0298924 146.304935,66.6523876 C158.729117,61.3883669 166.295756,47.4120502 163.37308,34.4625593 C161.417136,25.8008526 154.88889,19.2283467 146.882445,16.0589961 Z" id="Fill-95" fill="#FF5E7A"></path>
                        <path d="M126.954111,10.7753909 C127.07396,9.78011391 126.936321,8.67488526 126.801491,7.69531568 C126.681642,6.82141396 126.544939,5.79472223 126.194755,5.0636149 C126.123594,4.91368079 125.987828,5.05647518 126.002809,5.2064093 C126.001873,5.2064093 126.000936,5.2064093 126,5.2064093 C126.036517,6.13171701 126.284642,7.06702033 126.388573,7.98518832 C126.494378,8.9162078 126.489696,9.88720971 126.630144,10.8039498 C126.674151,11.0923944 126.920404,11.0452723 126.954111,10.7753909" id="Fill-100" fill="#EEC5A7"></path>
                        <path d="M128.681509,9.81382747 C128.817509,9.00458414 128.810509,8.16291212 128.773509,7.33303235 C128.743509,6.64760767 128.766509,5.53029174 128.402509,5.02912101 C128.376509,4.99521829 128.325509,4.981952 128.305509,5.03943923 C128.092509,5.65853249 128.276509,6.57980222 128.292509,7.24606448 C128.312509,8.09068457 128.269509,8.93530466 128.312509,9.77697668 C128.326509,10.0555686 128.636509,10.0791531 128.681509,9.81382747" id="Fill-101" fill="#EEC5A7"></path>
                        <path d="M159.998523,41.6397939 C160.081045,33.642394 156.703228,25.9230794 150.452519,20.8756202 C147.08729,18.1590475 140.761052,15.9888637 136.106239,16.000043 C125.045462,16.0251964 113.029386,21.512841 109.23616,32.0772904 C106.25417,40.3849162 108.950829,51.1897208 114.289598,58.0454336 C117.82127,62.5786444 126.624574,66.3712258 130.645784,66.8156034 C146.375361,68.5567812 159.829282,57.7994887 159.998523,41.6397939" id="Fill-96" fill="#230D09"></path>
                        <path d="M142.557658,57.6862643 C151.785759,51.94806 154.774352,38.3293454 149.173472,28.766752 C143.972321,19.8831498 132.878302,18.4506244 124.863439,23.0755424 C123.576813,23.6718879 122.366699,24.4173196 121.281499,25.3134583 C113.474307,31.7598227 111.648986,43.4047636 117.251427,51.9853316 C122.881973,60.6128943 134.008783,63.001517 142.557658,57.6862643" id="Fill-97" fill="#4E290F"></path>
                        <path d="M59.9865674,29.4420008 C58.1247909,30.9161063 54.7953469,33.9691047 54.0608068,41.2490048 C53.5748803,46.0706465 56.0793794,50.7237786 58.7872895,54.5272821 C61.5404021,58.3945078 65.3684858,61.7491243 69.9254593,63.2487186 C77.4641254,65.7308064 87.2015049,61.7374759 88.9508322,53.7638457 L90.325914,53.7638457 C89.958143,60.2939285 84.3175999,70.0106022 75.1108139,71.8211997 C52.8630258,76.196428 36.263981,45.1453224 47.828566,28.9214036 C52.8630258,21.8585765 66.0050182,17.6055279 77.1677364,27.3474619 C77.1677364,27.3474619 76.5150988,27.9127206 75.2098235,29.0432382 C70.27615,27.0504903 63.9474333,26.3054557 59.9865674,29.4420008 Z" id="Fill-83" fill="#1991EB"></path>
                    </g>
                    <g id="phone" transform="translate(419.884976, 148.297564) rotate(-3.000000) translate(-419.884976, -148.297564) translate(398.384976, 124.297564)">
                        <g id="Group" transform="translate(0.604271, 0.708178)">
                            <path d="M2.66023954,28.7119204 C0.065655245,32.4138318 -0.386015999,34.0635955 2.00578774,35.8388641 C4.39759147,37.6141327 15.0347359,44.7062447 16.7914223,45.9170767 C18.8862428,47.3609744 20.2217184,47.3609744 21.1059338,45.9170767 C21.9901492,44.4731789 37.9930621,19.4088484 41.5142068,14.3203234 C42.0301673,13.5746915 41.5954655,12.2431414 40.8877766,11.7552895 C38.9804149,10.4406302 26.2379025,16.0928405 2.66023954,28.7119204 Z" id="Fill-102" fill="#151615"></path>
                            <path d="M30.6765619,4.61593488 C29.9256366,4.09095229 23.1026257,-0.118132118 22.1427797,0.00254469971 C21.7405514,0.0540437237 21.230517,0.566728038 20.6305203,1.33690747 C20.4669525,1.54597814 19.9071042,2.3184635 19.6238344,2.84652065 C19.4751363,3.12400047 2.23954313,28.4876541 2.08266667,28.7374628 C1.26259682,30.0433858 -0.176800494,32.1225629 0.729514238,33.2878244 C1.30125831,34.0218776 1.91240738,34.5068908 2.6038534,35.1010512 C3.41797533,35.8012842 12.1881875,41.9481155 15.8521079,44.1518125 C16.7130697,44.670646 17.688529,45.4677279 18.7160327,45.5492039 C19.4572926,45.6083894 20.0491109,45.0933991 20.4699264,44.4754108 C22.7353415,41.1518022 40.524835,14.5037475 40.8586622,13.8150441 C41.2564295,12.994903 40.9679553,12.0394808 40.3114533,11.4829838 C39.7932405,11.0448578 36.3545977,8.58674023 30.6765619,4.61593488" id="Fill-103" fill="#2B2E2C"></path>
                            <path d="M26.9559503,5.39011849 C26.3301761,4.95898707 23.8383392,3.40970703 23.1109658,3.02174188 C22.6335998,2.76712526 22.1097739,2.82605737 21.5151193,3.76941297 C20.9204647,4.71276858 4.73940314,28.6334749 4.60859999,28.838054 C3.92559945,29.9117152 2.72533191,31.6203291 3.48190922,32.5788199 C3.95755704,33.182707 4.46739205,33.5804996 5.04337182,34.0699739 C5.72191316,34.6450684 13.0320256,39.6966556 16.0858332,41.5083168 C16.8037641,41.9349021 17.6160814,42.5903127 18.4737339,42.6577481 C19.0913328,42.7062409 19.5840742,42.2826865 19.9356077,41.7742696 C21.823335,39.0427604 37.7153096,14.9458927 37.9932663,14.3798907 C38.3247334,13.7055375 38.3725543,13.2070234 37.8240729,12.7501302 C37.6226073,12.5819176 36.394223,11.6517418 34.1389201,9.95960274 C33.587301,9.51455411 32.8498794,10.9299124 32.422327,10.6333643 C32.0634888,10.3844759 27.5218218,7.61736984 27.1316203,7.34748376 C26.6874483,7.04026862 27.5817244,5.82124991 26.9559503,5.39011849 Z" id="Fill-104" fill="#48555E"></path>
                        </g>
                    </g>
                    <g id="Group-3" transform="translate(143.000000, 215.000000)"></g>
                    <g id="Group-3" transform="translate(335.216750, 219.389659) rotate(-59.000000) translate(-335.216750, -219.389659) translate(313.716750, 194.889659)"></g>
                    <g id="marker" transform="translate(84.072300, 168.076655) rotate(141.000000) translate(-84.072300, -168.076655) translate(58.072300, 155.576655)">
                        <path d="M0.669347775,3.89870573 L2.0670623,2.16253053 C2.31846895,1.85024503 2.73207984,1.71829297 3.11788653,1.82729171 L6.7209746,2.84524211 L5.27815656,6.64754262 L1.17628675,5.48809384 C0.644825559,5.33786917 0.335772295,4.7852536 0.485996962,4.25379241 C0.522599924,4.12429934 0.584961921,4.00352586 0.669347775,3.89870573 Z" id="Fill-523" fill="#48ADFA"></path>
                        <path d="M0.701534759,3.85872457 L2.06823526,2.16107353 C2.31904819,1.84952553 2.73137377,1.71739147 3.11655135,1.82512964 L3.41374513,1.90825783 L1.43693718,5.50570619 L1.23795175,5.45596153 C0.702155766,5.32201713 0.376390691,4.77908527 0.510335095,4.24328928 C0.545464584,4.1027665 0.610702121,3.9715526 0.701534759,3.85872457 Z" id="Fill-523" fill="#136DB0"></path>
                        <path d="M4.03588956,6.76548396 L7.16535606,7.80689662 L10.7463743,12.2205365 C11.1699439,12.7426053 11.4536119,13.1461291 12.0866475,13.3565267 L46.2427441,24.7172138 C46.8750068,24.9276114 47.5559645,24.5774721 47.7631117,23.9345032 L51.035728,13.7867428 C51.2428751,13.1437739 50.8973722,12.4521309 50.2651095,12.2417333 L16.1090129,0.880261128 C15.4759773,0.669863496 15.0129879,0.824521457 14.3675853,0.990955405 L8.90910248,2.39857837 L5.7971945,1.3636091 C5.27313341,1.18931503 4.7070047,1.47285722 4.53271063,1.9969183 C4.53174943,1.99980837 4.53080145,2.00270282 4.52986671,2.00560156 L3.39990126,5.50973818 C3.23151768,6.03191261 3.51530553,6.59224587 4.03588956,6.76548396 Z" id="Fill-524" fill="#3A3A39"></path>
                        <polygon id="Fill-525" fill="#48ADFA" points="45.094048 24.3435449 12.0866475 13.3565267 16.1090129 0.880261128 49.0553591 11.8367467"></polygon>
                    </g>
                </g>
            </g>
        </g>
    </g>
</svg>