<?xml version="1.0" encoding="UTF-8"?>
<svg width="49px" height="48px" viewBox="0 0 49 48" version="1.1" xmlns="http://www.w3.org/2000/svg" xmlns:xlink="http://www.w3.org/1999/xlink">
    <!-- Generator: Sketch 55 (78076) - https://sketchapp.com -->
    <title>Icon/special/media/linkedin/gray</title>
    <desc>Created with Sketch.</desc>
    <g id="Page-1" stroke="none" stroke-width="1" fill="none" fill-rule="evenodd">
        <g id="0001.-Landing--Home--Desktop-#13" transform="translate(-876.000000, -447.000000)" fill="#7F8FA4" fill-rule="nonzero">
            <g id="Group-2" transform="translate(205.000000, 95.000000)">
                <g id="Icon/special/media/linkedin/gray" transform="translate(695.638692, 376.000000) rotate(-360.000000) translate(-695.638692, -376.000000) translate(671.638692, 352.000000)">
                    <g id="logo" transform="translate(12.923077, 12.923077)">
                        <path d="M4.68462366,22.1538462 C3.36014151,22.1398602 2.02157802,22.1398602 0.683153952,22.1538462 C0.432199439,22.1538462 0.362489852,22.0839165 0.362489852,21.8181837 L0.362489852,7.63644656 C0.362489852,7.37071381 0.446141357,7.30078414 0.69709587,7.30078414 C2.02157802,7.31477008 3.36014151,7.31477008 4.68462366,7.30078414 C4.94938067,7.30078414 5.01922968,7.38469975 5.00528776,7.63644656 L5.00528776,14.7413011 C5.00528776,17.1049239 5.00528776,19.4684069 5.01922968,21.8321697 C5.01922968,22.0839165 4.93557818,22.1538462 4.68462366,22.1538462 Z M2.69079006,5.39855724 C1.21294681,5.41268304 3.63797881e-12,4.1679349 3.63797881e-12,2.69941182 C0.0139419174,1.28669262 1.08760898,0.0141124755 2.67698756,0.00012654144 C4.18257522,-0.0138593927 5.38171953,1.1329872 5.38171953,2.69941182 C5.38171953,4.23786457 4.21045905,5.38471117 2.69079006,5.39855724 Z M21.7355886,22.1538462 L17.8179098,22.1538462 C17.4971063,22.1538462 17.4833038,22.1398602 17.4833038,21.8041978 L17.4833038,14.6154277 C17.4833038,13.9441028 17.4693619,13.272778 17.2740356,12.6154391 C16.9674529,11.5944659 16.3120433,11.1049582 15.2385157,11.0768465 C14.4856522,11.0630004 13.7746144,11.2028598 13.2448215,11.790269 C12.8126221,12.2518048 12.6313772,12.8112422 12.5477257,13.4266233 C12.4920974,13.9719348 12.4501322,14.5315121 12.4501322,15.0909494 C12.4363297,17.3426848 12.4363297,19.5944202 12.4501322,21.8320298 C12.4501322,22.0839165 12.3804226,22.1538462 12.1435495,22.1538462 C10.804986,22.1398602 9.45275941,22.1398602 8.11419592,22.1538462 C7.87732275,22.1538462 7.79367124,22.0839165 7.79367124,21.8320298 C7.80761316,17.1049239 7.80761316,12.3636923 7.79367124,7.62246063 C7.79367124,7.37071381 7.89126466,7.30078414 8.11419592,7.30078414 C9.39685232,7.31477008 10.6796481,7.31477008 11.9623045,7.30078414 C12.2131196,7.30078414 12.2967711,7.39868568 12.2828292,7.63644656 C12.2688873,8.15392612 12.2828292,8.68539162 12.2828292,9.20287118 C13.0079483,8.12595425 13.9838826,7.44064348 15.2107713,7.13295293 C16.6327074,6.78330458 18.0408411,6.89519205 19.3794046,7.48260128 C20.6760029,8.04203865 21.3730988,9.10496964 21.7355886,10.4196474 C21.9865431,11.2727894 22.0980785,12.1539033 22.1120204,13.0490031 C22.1258229,15.9440914 22.1397648,18.8391798 22.1538462,21.7482541 C22.1538462,22.1538462 22.1538462,22.1538462 21.7355886,22.1538462 Z" id="Shape"></path>
                    </g>
                </g>
            </g>
        </g>
    </g>
</svg>