<?xml version="1.0" encoding="UTF-8"?>
<svg width="501px" height="367px" viewBox="0 0 501 367" version="1.1" xmlns="http://www.w3.org/2000/svg" xmlns:xlink="http://www.w3.org/1999/xlink">
    <!-- Generator: Sketch 53.1 (72631) - https://sketchapp.com -->
    <title>Group 32</title>
    <desc>Created with Sketch.</desc>
    <defs>
        <polygon id="path-1" points="0.624694737 0.988842105 27.6402737 0.988842105 27.6402737 28 0.624694737 28"></polygon>
        <polygon id="path-3" points="0 0.257966667 27.0978105 0.257966667 27.0978105 11.8611889 0 11.8611889"></polygon>
    </defs>
    <g id="Page-1" stroke="none" stroke-width="1" fill="none" fill-rule="evenodd">
        <g id="Group-32">
            <g id="Group-2" transform="translate(172.000000, 29.000000)">
                <path d="M76.1610816,53.9284838 L2.06057393e-13,53.9284838 L2.06057393e-13,-3.19744231e-13 L71.3178621,-3.19744231e-13 L86.5912491,16.114437 L86.5912491,42.7924749 C86.5912491,48.9430323 81.9214621,53.9284838 76.1610816,53.9284838" id="Fill-45" fill="#25A6F4"></path>
                <polyline id="Fill-46" fill="#2297DD" points="86.5314852 16.2428094 71.1975531 16.6279264 71.1975531 -1.04805054e-13 86.5314852 16.2428094"></polyline>
            </g>
            <path d="M380.098662,299.440963 C385.480573,292.667012 391.023596,285.553979 392.770895,277.069201 C394.389688,269.206717 396.698961,260.589003 396.422769,252.564684 C396.144659,244.534586 397.621519,236.51412 400.262607,228.930995 C408.542617,205.156662 418.433749,209.063822 421.928346,211.366117 C425.35965,213.627954 426.608269,217.839517 426.030951,224.309064 C425.566794,229.514757 419.014903,253.335327 427.319847,250.713215 C436.932868,247.678809 439.735068,222.307319 442.203535,214.044101 C445.893769,201.684916 452.698837,188.83252 463.395529,181.253247 C468.666195,177.519483 476.027483,175.217187 481.426656,178.764071 C484.658488,180.887192 486.442229,184.686461 487.228609,188.485731 C489.601177,199.925924 484.40723,210.861346 478.862289,220.523281 C476.545344,224.563376 459.526921,242.455777 471.807881,242.03963 C474.742423,241.941373 501.070823,226.046864 500.999857,245.908257 C500.974923,252.901841 492.430228,259.014965 479.159579,266.337999 C470.871897,270.909838 440.945327,281.818287 441.420991,289.615267 C441.896655,297.416099 459.001388,287.185815 455.399382,301.147937 C453.381645,308.968035 442.280255,313.399232 434.857591,315.520426 C431.326551,316.528042 427.607547,316.826666 424.149392,318.065474 C420.046787,319.535476 414.739679,323.666121 417.116082,328.632915 C418.155638,330.802274 420.520534,332.11622 421.487206,334.320259 C422.469223,336.55705 421.734628,339.267786 420.205981,341.169347 C418.677335,343.068982 416.479305,344.298157 414.262096,345.311553 C400.061217,351.798439 383.3631,351.052842 368.550378,346.134214 C353.739574,341.215586 340.514957,332.43411 328,323.078506" id="Fill-3" fill="#25A6F4"></path>
            <g id="Group-15" transform="translate(382.000000, 192.000000)" stroke="#FFFFFF" stroke-linecap="round" stroke-linejoin="round">
                <path d="M89.8741235,0.144683431 C89.8741235,0.144683431 63.7564137,81.0312799 7.40960771,126.450707" id="Stroke-5"></path>
                <path d="M105.924952,57.62906 C105.924952,57.62906 75.3082059,76.0632238 51.9594277,76.3476838" id="Stroke-7"></path>
                <path d="M34.226998,30.17463 C31.1563482,43.0214604 25.5191851,79.2497528 35.605735,98.3316398" id="Stroke-9"></path>
                <path d="M62.4235072,111.365291 C62.4235072,111.365291 50.282219,119.533907 15.8825388,119.161034" id="Stroke-11"></path>
                <path d="M32.3490894,144.484512 C32.3490894,144.484512 14.454152,145.397475 0.0117859671,134.228575" id="Stroke-13"></path>
            </g>
            <path d="M80.4420718,274.625109 C62.0621512,264.974973 72.8942108,247.149403 70.1741216,235.523361 C65.6921566,216.385017 60.6074445,212.546939 50.1057367,216.284776 C44.9707956,218.114177 42.1058154,225.566719 40.9660053,230.378292 C39.1539005,238.031316 40.531332,245.983136 41.5706842,253.63616 C42.4690091,260.25593 46.4255024,274.571133 38.5067202,277.092582 C30.5898698,279.614032 29.3727844,269.144618 19.7751972,261.54557 C15.4593739,258.129661 3.8197879,256.69737 1.2407261,265.177383 C-3.34169681,280.234756 3.77149086,287.400068 39.4765247,307.348051 C45.5619514,310.746611 58.7199963,314.320593 57.9569031,317.728791 C57.2015374,321.106145 47.9053236,317.050235 41.0413487,319.386625 C29.9465533,323.164944 34.9501263,330.129774 38.8525269,332.379416 C69.8920669,350.272456 95.1185755,342.397745 107.244996,347.999681 C112.524828,350.436312 116.023465,355.477284 120.15576,359.565965 C129.289695,368.606943 132.740036,367.012723 145.602503,366.683084 C153.117522,366.490313 160.829593,364.365972 166.44364,359.373193 C168.734852,357.3356 170.747872,354.260896 169.727839,351.371253 C169.078727,349.537997 167.372875,348.315827 165.717253,347.29221 C154.141419,340.146175 140.479153,337.040628 128.630924,330.357244 C110.710791,320.248313 97.7787763,301.763464 94.442417,281.493553" id="Fill-16" fill="#25A6F4"></path>
            <g id="Group-24" transform="translate(10.000000, 230.000000)" stroke="#FFFFFF" stroke-linecap="round" stroke-linejoin="round">
                <path d="M43.7697013,0.0138478261 C43.7028565,5.039711 44.8373083,9.99625192 45.9622109,14.8911731 C49.7914632,31.5150339 53.6837407,48.323754 61.2906794,63.570798 C71.2467355,83.5279037 87.0545768,99.8186326 103.083961,115.240908 C108.727572,120.669225 114.585087,126.141832 121.75467,129.240151" id="Stroke-18"></path>
                <path d="M0.734634278,45.4595897 C18.7120669,63.3351023 43.8839104,71.7269459 68.616488,76.8529412" id="Stroke-20"></path>
                <path d="M40.3100052,99.4238809 C54.1526092,102.250688 81.7461445,108.576344 93.8335949,106.159693" id="Stroke-22"></path>
            </g>
            <g id="two-settings-cogwheels" transform="translate(390.305514, 100.643334) scale(-1, 1) rotate(-25.000000) translate(-390.305514, -100.643334) translate(318.305514, 26.643334)" fill="#25A6F4" fill-rule="nonzero">
                <path d="M67.9163068,80.3894143 L64.3788756,72.5363409 C67.7511233,70.060974 70.6474995,66.9815244 72.9105728,63.4667538 L80.9652059,66.5187721 C82.505527,67.1025795 84.2265362,66.3267538 84.8097472,64.787029 L87.7699306,56.9733134 C88.0502059,56.2338639 88.02516,55.4133134 87.70016,54.6923501 C87.37516,53.9713868 86.7776371,53.4090474 86.0375912,53.1287721 L77.9829582,50.0767538 C78.6174536,45.944185 78.4886462,41.7197813 77.6030958,37.6307446 L85.4561692,34.0933134 C86.1771325,33.7683134 86.7394719,33.1707905 87.0197472,32.4307446 C87.3000224,31.6912951 87.2749765,30.8707446 86.9499765,30.1497813 L83.5180958,22.531662 C82.8418573,21.0301024 81.075527,20.3622125 79.57516,21.0378547 L71.7220866,24.5752859 C69.2467196,21.2030382 66.1672701,18.306662 62.6524995,16.0435886 L65.7045178,7.98895561 C66.2877288,6.44923084 65.5124995,4.72762533 63.9727747,4.14441432 L56.1596554,1.18363451 C55.4208022,0.903955609 54.6002517,0.92840515 53.8786921,1.25340515 C53.1577288,1.57840515 52.5953894,2.17592809 52.3151141,2.91597396 L49.2636921,10.9700107 C45.126949,10.3319373 40.8953894,10.4637263 36.8170866,11.3492767 L33.2802517,3.49679965 C32.9552517,2.77583634 32.3577288,2.21349689 31.6176829,1.93322166 C30.8788297,1.65354276 30.0576829,1.67799231 29.3367196,2.00299231 L21.718004,5.43487304 C20.2164444,6.11111157 19.5479582,7.87624919 20.2241967,9.37780882 L23.7616279,17.2308822 C20.3893802,19.7062492 17.493004,22.7856987 15.2299306,26.3004694 L7.17529762,23.248451 C6.43644441,22.9687721 5.61589395,22.993818 4.89433432,23.3182217 C4.17337101,23.6432217 3.61103156,24.2407446 3.33075634,24.9807905 L0.370572849,32.7939097 C-0.21263816,34.3336345 0.562591197,36.05524 2.10231597,36.638451 L10.156949,39.6904694 C9.52245358,43.8224418 9.65126092,48.0480382 10.5368114,52.1364785 L2.68314166,55.6739097 C1.96217835,55.9989097 1.3998389,56.5964327 1.11956367,57.3364785 C0.839288445,58.0759281 0.864334317,58.8964785 1.18933432,59.6174418 L4.62121505,67.2355611 C4.94561872,67.9565244 5.54373799,68.5188639 6.28318753,68.7991391 C7.0232334,69.0794143 7.84318753,69.0549648 8.56415083,68.7293685 L16.4172242,65.1919373 C18.8925912,68.5647813 21.9714444,71.4605611 25.4868114,73.7236345 L22.434793,81.7782675 C21.851582,83.3179923 22.6268114,85.0395978 24.1665362,85.6228088 L31.9802517,88.5829923 C32.3207563,88.7117996 32.6791508,88.7762033 33.0363527,88.7762033 C33.4543802,88.7762033 33.8724077,88.6885428 34.2612151,88.5132217 C34.9821784,88.1882217 35.5445178,87.5906987 35.824793,86.8506529 L38.8762151,78.7966162 C43.0129582,79.4340932 47.2451141,79.3029006 51.3228206,78.4173501 L54.8596554,86.2698272 C55.1846554,86.9907905 55.7821784,87.5531299 56.5222242,87.8334052 C57.2616738,88.1136804 58.0828206,88.0892308 58.8031875,87.7636345 L66.4213068,84.3323501 C67.9234628,83.6561116 68.5925453,81.890974 67.9163068,80.3894143 Z M62.9751141,52.0464327 C60.015527,59.8583593 52.4164903,65.106662 44.0660774,65.106662 C41.6235086,65.106662 39.2149306,64.6629923 36.9071325,63.7887721 C31.8574077,61.8757446 27.8548389,58.1105152 25.6370866,53.1866162 C23.4193343,48.2633134 23.2517655,42.7705152 25.164793,37.7207905 C28.1243802,29.9088639 35.7234169,24.6605611 44.0738297,24.6605611 C46.5163985,24.6605611 48.9249765,25.1042308 51.2327747,25.978451 C56.2824995,27.8914785 60.2850683,31.6567079 62.5028206,36.5800107 C64.7211692,41.5039097 64.888738,46.9967079 62.9751141,52.0464327 Z M143.168528,110.276922 C142.634216,109.694307 141.889399,109.347839 141.099858,109.313848 L135.483619,109.072931 C134.966601,106.422243 134.032748,103.86339 132.720821,101.501325 L136.862335,97.7003161 C138.075867,96.5869675 138.156372,94.7007749 137.043023,93.4878391 L132.930729,89.0070134 C132.396418,88.4243987 131.651601,88.0779308 130.861463,88.04394 C130.073115,88.0147198 129.300271,88.2920134 128.717656,88.8263253 L124.576739,92.6273345 C122.335133,91.1180226 119.865729,89.9688941 117.269307,89.2270593 L117.510225,83.6108207 C117.580592,81.9655455 116.303849,80.5749033 114.658573,80.5045363 L108.582564,80.24394 C106.945638,80.1819216 105.546647,81.4503161 105.47628,83.094995 L105.235362,88.7112336 C102.585271,89.2282519 100.026418,90.1621051 97.663757,91.4734354 L93.8627478,87.3319216 C93.3284359,86.749307 92.5836194,86.4028391 91.7940781,86.3688483 C91.0045368,86.3366464 90.2328854,86.6169216 89.6502707,87.1512336 L85.1694451,91.2635272 C83.9559129,92.3768758 83.8754084,94.2630684 84.988757,95.4760042 L88.7897662,99.617518 C87.2804542,101.859123 86.1313258,104.327931 85.3894909,106.924949 L79.7738487,106.684032 C78.1357295,106.617839 76.737335,107.889812 76.666968,109.535087 L76.4063717,115.611096 C76.3723808,116.401234 76.6538487,117.172289 77.188757,117.754903 C77.7230689,118.337518 78.4678854,118.683986 79.258023,118.717977 L84.8736652,118.958298 C85.3906836,121.608986 86.3245368,124.167839 87.6358671,126.5305 L83.4949496,130.331509 C82.912335,130.865821 82.5658671,131.610637 82.5318762,132.400179 C82.4978854,133.190316 82.7793533,133.961371 83.3142616,134.543986 L87.4265551,139.024812 C87.9608671,139.607426 88.7056836,139.953894 89.4958212,139.987885 C90.2823808,140.01949 91.0570139,139.739812 91.6396285,139.2055 L95.780546,135.40449 C98.0221515,136.913802 100.491555,138.062931 103.087977,138.804766 L102.84706,144.421004 C102.776693,146.066279 104.05284,147.456922 105.698115,147.527289 L111.774124,147.787885 C111.81706,147.789674 111.859399,147.79027 111.901739,147.79027 C112.647151,147.79027 113.366922,147.511188 113.917931,147.0055 C114.500546,146.471188 114.847014,145.726371 114.881005,144.93683 L115.121922,139.320591 C117.772014,138.803573 120.330867,137.86972 122.693528,136.55839 L126.494537,140.699903 C127.028849,141.282518 127.773665,141.628986 128.563207,141.662977 C129.356326,141.697564 130.124996,141.414903 130.707014,140.880591 L135.18784,136.768298 C136.401372,135.654949 136.481876,133.768757 135.368528,132.555821 L131.567518,128.414307 C133.07683,126.172701 134.225959,123.703894 134.967794,121.106876 L140.583436,121.347793 C142.226922,121.411004 143.619353,120.142013 143.690317,118.496738 L143.950913,112.420729 C143.984904,111.630591 143.703436,110.859536 143.168528,110.276922 Z M109.58261,127.90683 C101.923344,127.578848 95.9588487,121.080041 96.2874267,113.420775 C96.6070597,105.958298 102.703344,100.112472 110.165821,100.112472 C110.367381,100.112472 110.570133,100.116646 110.773482,100.125591 C118.432748,100.454169 124.397243,106.95238 124.068665,114.611646 C123.740087,122.276279 117.304491,128.231234 109.58261,127.90683 Z" id="Shape"></path>
            </g>
            <g id="two-settings-cogwheels" transform="translate(354.761575, 209.765861) scale(-1, 1) rotate(-25.000000) translate(-354.761575, -209.765861) translate(320.761575, 175.765861)"></g>
            <path d="M391,366 L90,366 L90,136.395315 C90,126.789406 97.7728595,119 107.362651,119 L373.637349,119 C383.22522,119 391,126.789406 391,136.395315 L391,366 Z" id="Fill-29" fill="#FFFFFF"></path>
            <path d="M207.988688,348 L115.009379,348 C112.795908,348 111,346.17422 111,343.921965 L111,301.078035 C111,298.82578 112.795908,297 115.009379,297 L207.988688,297 C210.204092,297 212,298.82578 212,301.078035 L212,343.921965 C212,346.17422 210.204092,348 207.988688,348" id="Fill-31" fill="#DBDBDB"></path>
            <path d="M287.750549,166 L113.249451,166 C112.00593,166 111,165.095997 111,163.978476 L111,160.021524 C111,158.904003 112.00593,158 113.249451,158 L287.750549,158 C288.992154,158 290,158.904003 290,160.021524 L290,163.978476 C290,165.095997 288.992154,166 287.750549,166" id="Fill-33" fill="#DBDBDB"></path>
            <path d="M287.750549,185 L113.249451,185 C112.00593,185 111,184.094275 111,182.976754 L111,179.019802 C111,177.904003 112.00593,177 113.249451,177 L287.750549,177 C288.992154,177 290,177.904003 290,179.019802 L290,182.976754 C290,184.094275 288.992154,185 287.750549,185" id="Fill-35" fill="#DBDBDB"></path>
            <path d="M287.750549,203 L113.249451,203 C112.00593,203 111,202.094275 111,200.976754 L111,197.019802 C111,195.904003 112.00593,195 113.249451,195 L287.750549,195 C288.992154,195 290,195.904003 290,197.019802 L290,200.976754 C290,202.094275 288.992154,203 287.750549,203" id="Fill-37" fill="#DBDBDB"></path>
            <path d="M287.750549,221 L113.249451,221 C112.00593,221 111,220.094275 111,218.976754 L111,215.019802 C111,213.904003 112.00593,213 113.249451,213 L287.750549,213 C288.992154,213 290,213.904003 290,215.019802 L290,218.976754 C290,220.094275 288.992154,221 287.750549,221" id="Fill-39" fill="#DBDBDB"></path>
            <path d="M287.750549,240 L113.249451,240 C112.00593,240 111,239.094275 111,237.976754 L111,234.019802 C111,232.904003 112.00593,232 113.249451,232 L287.750549,232 C288.992154,232 290,232.904003 290,234.019802 L290,237.976754 C290,239.094275 288.992154,240 287.750549,240" id="Fill-41" fill="#DBDBDB"></path>
            <path d="M287.750549,258 L113.249451,258 C112.00593,258 111,257.094275 111,255.976754 L111,252.019802 C111,250.904003 112.00593,250 113.249451,250 L287.750549,250 C288.992154,250 290,250.904003 290,252.019802 L290,255.976754 C290,257.094275 288.992154,258 287.750549,258" id="Fill-43" fill="#DBDBDB"></path>
            <polygon id="Fill-45" fill="#DBDBDB" points="291 337 292.855814 340.292001 297 340.821167 294 343.381418 294.707641 347 291 345.292001 287.292359 347 288 343.381418 285 340.821167 289.144186 340.292001"></polygon>
            <polygon id="Fill-47" fill="#DBDBDB" points="309.000997 337 310.854509 340.292001 315 340.821167 312.000498 343.381418 312.708022 347 309.000997 345.292001 305.293971 347 305.999502 343.381418 303 340.821167 307.145491 340.292001"></polygon>
            <polygon id="Fill-49" fill="#DBDBDB" points="327.000997 337 328.854509 340.292001 333 340.821167 330.000498 343.381418 330.708022 347 327.000997 345.292001 323.291978 347 323.999502 343.381418 321 340.821167 325.145491 340.292001"></polygon>
            <polygon id="Fill-51" fill="#DBDBDB" points="344.999003 337 346.854509 340.292001 351 340.821167 348.000498 343.381418 348.706029 347 344.999003 345.292001 341.291978 347 341.999502 343.381418 339 340.821167 343.145491 340.292001"></polygon>
            <polygon id="Fill-53" fill="#DBDBDB" points="361.999003 337 363.854509 340.292001 368 340.821167 364.998505 343.381418 365.706029 347 361.999003 345.292001 358.291978 347 358.999502 343.381418 356 340.821167 360.143498 340.292001"></polygon>
            <path d="M274.378109,194.161624 C253.028262,187.082337 241.5,174 241.5,174 C241.5,174 229.973667,187.082337 208.621891,194.161624 C189.505187,200.499675 169,199.737261 169,199.737261 C169,199.737261 169,269.145847 192.841402,297.110667 C215.228754,323.371606 241.5,328 241.5,328 C241.5,328 267.771246,323.371606 290.160527,297.110667 C314,269.145847 314,199.737261 314,199.737261 C314,199.737261 293.494813,200.499675 274.378109,194.161624" id="Fill-55" fill="#1991EB"></path>
            <path d="M200.81572,291.07811 C186.173651,273.712204 181.189524,233.761534 180,210.819048 C188.39946,210.275699 200.212338,208.796475 211.714905,204.940822 C224.839899,200.54182 234.714292,194.035165 240.999042,189 C247.283792,194.035165 257.158186,200.54182 270.281264,204.940822 C281.785747,208.796475 293.60054,210.275699 302,210.819048 C300.810476,233.759601 295.826349,273.710271 281.182365,291.07811 C265.207109,310.025722 246.881537,316.366085 240.999042,318 C235.118463,316.366085 216.790975,310.025722 200.81572,291.07811 Z" id="Fill-57" fill="#116AB1"></path>
            <path d="M202.382516,289.566988 C188.585424,273.125507 183.467147,235.842037 182,212.279443 C190.487792,211.536371 201.364375,209.88643 212.010548,206.300904 C224.600444,202.060197 234.305279,196.083656 241.006893,191 C247.706537,196.083656 257.409403,202.060197 269.999299,206.300904 C280.641533,209.884432 291.514177,211.534373 300,212.279443 C298.515129,235.860015 293.385036,273.175445 279.6293,289.566988 C264.378845,307.740308 247.43674,314.124341 241.006893,316 C234.577046,314.124341 217.631002,307.740308 202.382516,289.566988 Z" id="Fill-59" fill="#1991EB"></path>
            <path d="M252,239.5 C252,246.402424 246.628653,252 240.00095,252 C233.373248,252 228,246.402424 228,239.5 C228,232.595596 233.373248,227 240.00095,227 C246.628653,227 252,232.595596 252,239.5" id="Fill-61" fill="#FFFFFF"></path>
            <path d="M240,278 L240,278 C237.239564,278 235,275.662591 235,272.781552 L235,244.218448 C235,241.335447 237.239564,239 240,239 C242.762317,239 245,241.335447 245,244.218448 L245,272.781552 C245,275.662591 242.762317,278 240,278" id="Fill-63" fill="#FFFFFF"></path>
            <path d="M373.637349,119 L107.362651,119 C97.7728595,119 90,126.581491 90,135.935182 L90,144 L391,144 L391,135.935182 C391,126.581491 383.22522,119 373.637349,119" id="Fill-65" fill="#3DB2F9"></path>
            <path d="M346,132 C346,133.657459 344.65953,135 343.002072,135 C341.344613,135 340,133.657459 340,132 C340,130.342541 341.344613,129 343.002072,129 C344.65953,129 346,130.342541 346,132" id="Fill-67" fill="#FFFFFF"></path>
            <path d="M360,132 C360,133.657459 358.657459,135 357,135 C355.342541,135 354,133.657459 354,132 C354,130.342541 355.342541,129 357,129 C358.657459,129 360,130.342541 360,132" id="Fill-69" fill="#FFFFFF"></path>
            <path d="M374,132 C374,133.657459 372.657459,135 371,135 C369.342541,135 368,133.657459 368,132 C368,130.342541 369.342541,129 371,129 C372.657459,129 374,130.342541 374,132" id="Fill-71" fill="#FFFFFF"></path>
            <g id="security-badge" transform="translate(204.000000, 43.000000)" fill="#FFFFFF" fill-rule="nonzero" stroke="#FFFFFF" stroke-width="3">
                <path d="M22.9892442,4.5221987 C22.9808258,4.16487626 22.7180535,3.85665408 22.3510291,3.80781013 C20.6402655,3.5788953 18.9530281,3.18063767 17.2990507,2.59044602 C15.6528903,2.0030737 13.8314857,1.18312507 11.8669695,0.103212382 C11.6175387,-0.0339827368 11.3829152,-0.0348248739 11.1337475,0.103212382 C9.18283581,1.18257585 7.37447213,2.00080359 5.71530841,2.59044602 C4.06080484,3.17840418 2.37439428,3.57918821 0.677235308,3.80781013 C0.310173333,3.8572033 0.0526248836,4.16487626 0.0117734076,4.5221987 C-0.151031187,11.3093112 1.37486728,16.8626562 4.57473671,21.179451 C6.31793345,23.5309175 8.49944737,25.4395297 11.1337475,26.8948525 C11.3374035,27.0405056 11.656699,27.0294845 11.8942163,26.8948525 C14.5085604,25.4152542 16.6871805,23.5204823 18.426356,21.179451 C21.6304722,16.8654755 23.1439311,11.3095675 22.9892442,4.5221987 Z M17.2040062,20.3459549 C15.6922761,22.3804117 13.7955575,24.0768054 11.5005088,25.4394931 C9.20542251,24.0767688 7.29972182,22.3866362 5.79697378,20.3459549 C2.88595849,16.3929634 1.46495098,11.3358202 1.51910643,5.17053443 C3.12148397,4.91906496 4.71055753,4.49565307 6.29933043,3.92666131 C7.88810334,3.35792584 9.62637686,2.57719151 11.5005088,1.58508077 C13.3746407,2.57719151 15.0992344,3.35792584 16.6880449,3.92666131 C18.2768178,4.49568969 19.8791954,4.91906496 21.4818736,5.17053443 C21.5360666,11.3756203 20.1060394,16.4398301 17.2040062,20.3459549 Z" id="Shape"></path>
            </g>
            <g id="Group" transform="translate(65.000000, 49.000000)" fill="#25A6F4">
                <path d="M16.9795691,60.4753623 L78.7801652,60.4753623 C79.0819422,60.4753623 79.3262804,60.2092902 79.3262804,59.8810851 L79.3262804,0.59427722 C79.3262804,0.266072092 79.0819422,2.48689958e-13 78.7801652,2.48689958e-13 L0.545817569,2.48689958e-13 C0.244040571,2.48689958e-13 5.68434189e-13,0.266072092 5.68434189e-13,0.59427722 L5.68434189e-13,41.9945002 C5.68434189e-13,52.2012635 7.60186378,60.4753623 16.9795691,60.4753623" id="Fill-40"></path>
                <path d="M64.1160054,59.4746934 L63.8285137,78.7062059 C63.8195854,79.3162393 63.0356794,79.5603122 62.6812254,79.0635452 L47.5649953,57.8785582 C47.255778,57.4454106 47.5879113,56.8481605 48.1194436,56.8811594 L63.7660155,57.8583426 C64.1725513,57.883612 64.4493291,58.2804905 64.3323682,58.6702341 L64.1424927,59.3025641 C64.1255289,59.3584541 64.1166006,59.4164251 64.1160054,59.4746934" id="Fill-41"></path>
            </g>
            <g id="Group" transform="translate(317.000000, 40.000000) scale(-1, 1) translate(-317.000000, -40.000000) translate(277.000000, 0.000000)" fill="#25A6F4">
                <path d="M16.9795691,60.4753623 L78.7801652,60.4753623 C79.0819422,60.4753623 79.3262804,60.2092902 79.3262804,59.8810851 L79.3262804,0.59427722 C79.3262804,0.266072092 79.0819422,2.48689958e-13 78.7801652,2.48689958e-13 L0.545817569,2.48689958e-13 C0.244040571,2.48689958e-13 5.68434189e-13,0.266072092 5.68434189e-13,0.59427722 L5.68434189e-13,41.9945002 C5.68434189e-13,52.2012635 7.60186378,60.4753623 16.9795691,60.4753623" id="Fill-40"></path>
                <path d="M64.1160054,59.4746934 L63.8285137,78.7062059 C63.8195854,79.3162393 63.0356794,79.5603122 62.6812254,79.0635452 L47.5649953,57.8785582 C47.255778,57.4454106 47.5879113,56.8481605 48.1194436,56.8811594 L63.7660155,57.8583426 C64.1725513,57.883612 64.4493291,58.2804905 64.3323682,58.6702341 L64.1424927,59.3025641 C64.1255289,59.3584541 64.1166006,59.4164251 64.1160054,59.4746934" id="Fill-41"></path>
            </g>
            <g id="wifi" transform="translate(88.000000, 67.000000)" fill="#FFFFFF" fill-rule="nonzero">
                <path d="M33.6076923,6.94047619 C29.2923077,2.61904762 23.5384615,0 17,0 C10.4615385,0 4.57692308,2.61904762 0.392307692,6.94047619 C0.130769231,7.20238095 0,7.46428571 0,7.85714286 C0,8.25 0.130769231,8.51190476 0.392307692,8.77380952 L2.22307692,10.6071429 C2.74615385,11.1309524 3.53076923,11.1309524 4.05384615,10.6071429 C7.32307692,7.33333333 11.9,5.23809524 17,5.23809524 C22.1,5.23809524 26.6769231,7.33333333 29.9461538,10.6071429 C30.4692308,11.1309524 31.2538462,11.1309524 31.7769231,10.6071429 L33.6076923,8.77380952 C33.8692308,8.51190476 34,8.25 34,7.85714286 C34,7.46428571 33.8692308,7.07142857 33.6076923,6.94047619 Z" id="Path"></path>
                <path d="M17,11 C13.1643836,11 9.87671233,12.4666667 7.4109589,14.8666667 C6.8630137,15.4 6.8630137,16.2 7.4109589,16.7333333 L9.32876712,18.6 C9.87671233,19.1333333 10.6986301,19.1333333 11.2465753,18.6 C12.7534247,17.1333333 14.8082192,16.3333333 17,16.3333333 C19.1917808,16.3333333 21.2465753,17.2666667 22.7534247,18.6 C23.3013699,19.1333333 24.1232877,19.1333333 24.6712329,18.6 L26.5890411,16.7333333 C27.1369863,16.2 27.1369863,15.4 26.5890411,14.8666667 C24.1232877,12.4666667 20.8356164,11 17,11 L17,11 Z" id="Path"></path>
                <circle id="Oval" cx="17.5" cy="24.5" r="2.5"></circle>
            </g>
            <g id="Group-9" transform="translate(291.000000, 15.000000)">
                <g id="Group-3" transform="translate(23.000000, 0.000000)">
                    <mask id="mask-2" fill="white">
                        <use xlink:href="#path-1"></use>
                    </mask>
                    <g id="Clip-2"></g>
                    <path d="M14.1310105,6.77776842 C9.87501053,6.77776842 6.4148,10.2409263 6.4148,14.4939789 C6.4148,18.7485053 9.87501053,22.2101895 14.1310105,22.2101895 C18.3870105,22.2101895 21.8501684,18.7485053 21.8501684,14.4939789 C21.8501684,10.2409263 18.3870105,6.77776842 14.1310105,6.77776842 M14.1310105,28.0002947 C6.68153684,28.0002947 0.624694737,21.9405053 0.624694737,14.4939789 C0.624694737,7.04745263 6.68153684,0.987663158 14.1310105,0.987663158 C21.5790105,0.987663158 27.6402737,7.04745263 27.6402737,14.4939789 C27.6402737,21.9405053 21.5790105,28.0002947 14.1310105,28.0002947" id="Fill-1" fill="#FFFFFF" mask="url(#mask-2)"></path>
                </g>
                <g id="Group-6" transform="translate(0.000000, 12.000000)">
                    <mask id="mask-4" fill="white">
                        <use xlink:href="#path-3"></use>
                    </mask>
                    <g id="Clip-5"></g>
                    <polygon id="Fill-4" fill="#FFFFFF" mask="url(#mask-4)" points="5.78981053 11.8611889 -0.000294736841 11.8611889 -0.000294736841 0.257966667 27.0978105 0.257966667 27.0978105 5.93318889 5.78981053 5.93318889"></polygon>
                </g>
                <polygon id="Fill-7" fill="#FFFFFF" points="9 22 15 22 15 15 9 15"></polygon>
            </g>
            <path d="M375.418844,194.23229 C375.023351,193.801034 374.472044,193.544575 373.887632,193.519415 L369.730538,193.341086 C369.347845,191.379023 368.656615,189.484938 367.685537,187.736517 L370.751052,184.922977 C371.649298,184.098866 371.708887,182.70269 370.884796,181.804864 L367.84091,178.488118 C367.445416,178.056861 366.894109,177.800403 366.309256,177.775242 C365.725726,177.753613 365.153674,177.958869 364.722427,178.354371 L361.657354,181.167911 C359.998135,180.050705 358.170303,179.20011 356.248453,178.650998 L356.426778,174.493809 C356.478863,173.275962 355.533828,172.246596 354.316009,172.19451 L349.818596,172.001614 C348.606956,171.955708 347.571435,172.894584 347.51935,174.11199 L347.341025,178.269179 C345.379448,178.651881 343.485406,179.343127 341.736584,180.313785 L338.923108,177.2482 C338.527615,176.816944 337.976307,176.560485 337.391895,176.535325 C336.807483,176.511489 336.236313,176.718951 335.805067,177.114453 L332.488396,180.158409 C331.590149,180.982519 331.530561,182.378696 332.354652,183.276522 L335.168128,186.342106 C334.050948,188.001362 333.200372,189.828795 332.651272,191.751131 L328.49462,191.572802 C327.282097,191.523805 326.247017,192.465331 326.194932,193.683178 L326.00204,198.180693 C325.976881,198.76556 326.185221,199.336302 326.581156,199.767558 C326.976649,200.198814 327.527956,200.455273 328.11281,200.480433 L332.269462,200.658321 C332.652155,202.620384 333.343385,204.514469 334.314021,206.263331 L331.248948,209.076872 C330.817701,209.472374 330.561249,210.023694 330.536089,210.608119 C330.510929,211.192986 330.71927,211.763728 331.115204,212.194984 L334.15909,215.511731 C334.554584,215.942987 335.105891,216.199446 335.690744,216.224606 C336.272949,216.248001 336.846326,216.04098 337.277573,215.645477 L340.342646,212.831937 C342.001865,213.949143 343.829697,214.799738 345.751547,215.348851 L345.573222,219.50604 C345.521137,220.723887 346.465731,221.753252 347.68355,221.805339 L352.180963,221.998234 C352.212743,221.999559 352.244083,222 352.275422,222 C352.82717,222 353.359939,221.793421 353.767791,221.419106 C354.199038,221.023604 354.455491,220.472284 354.48065,219.887858 L354.658975,215.730669 C356.620552,215.347968 358.514594,214.656722 360.263416,213.686063 L363.076892,216.751648 C363.472385,217.182905 364.023693,217.439363 364.608105,217.464524 C365.195165,217.490125 365.764128,217.280897 366.194933,216.885395 L369.511604,213.841439 C370.409851,213.017329 370.469439,211.621153 369.645348,210.723327 L366.831872,207.657742 C367.949052,205.998486 368.799628,204.171053 369.348728,202.248717 L373.50538,202.427047 C374.721876,202.473836 375.752542,201.534518 375.805068,200.316671 L375.99796,195.819155 C376.023119,195.234289 375.814779,194.663547 375.418844,194.23229 Z M350.558822,207.282103 C344.889496,207.039328 340.474625,202.228854 340.717835,196.559398 C340.954425,191.035607 345.466845,186.708476 350.99051,186.708476 C351.139703,186.708476 351.289778,186.711566 351.440295,186.718187 C357.109622,186.961403 361.524493,191.771436 361.281282,197.440892 C361.038071,203.11432 356.274495,207.52223 350.558822,207.282103 Z" id="Shape" fill="#25A6F4" fill-rule="nonzero"></path>
        </g>
    </g>
</svg>