<?xml version="1.0" encoding="UTF-8"?>
<svg width="592px" height="586px" viewBox="0 0 592 586" version="1.1" xmlns="http://www.w3.org/2000/svg" xmlns:xlink="http://www.w3.org/1999/xlink">
    <!-- Generator: Sketch 53.2 (72643) - https://sketchapp.com -->
    <title>tasktrackers</title>
    <desc>Created with Sketch.</desc>
    <defs>
        <linearGradient x1="50%" y1="0.3125%" x2="50%" y2="99.6875%" id="linearGradient-1">
            <stop stop-color="#0091E6" offset="0%"></stop>
            <stop stop-color="#0079BF" offset="100%"></stop>
        </linearGradient>
        <filter x="-70.0%" y="-70.0%" width="240.0%" height="240.0%" filterUnits="objectBoundingBox" id="filter-2">
            <feGaussianBlur stdDeviation="-2.56042038 13.7638747" in="SourceGraphic"></feGaussianBlur>
        </filter>
        <filter x="-95.5%" y="-102.4%" width="290.9%" height="304.9%" filterUnits="objectBoundingBox" id="filter-3">
            <feGaussianBlur stdDeviation="-2.56042038 13.7638747" in="SourceGraphic"></feGaussianBlur>
        </filter>
        <filter x="-67.5%" y="-67.5%" width="235.0%" height="235.0%" filterUnits="objectBoundingBox" id="filter-4">
            <feOffset dx="5" dy="6" in="SourceAlpha" result="shadowOffsetOuter1"></feOffset>
            <feGaussianBlur stdDeviation="7.5" in="shadowOffsetOuter1" result="shadowBlurOuter1"></feGaussianBlur>
            <feColorMatrix values="0 0 0 0 0   0 0 0 0 0.0666666667   0 0 0 0 0.17254902  0 0 0 0.16 0" type="matrix" in="shadowBlurOuter1" result="shadowMatrixOuter1"></feColorMatrix>
            <feMerge>
                <feMergeNode in="shadowMatrixOuter1"></feMergeNode>
                <feMergeNode in="SourceGraphic"></feMergeNode>
            </feMerge>
        </filter>
        <filter x="-68.8%" y="-75.7%" width="237.6%" height="251.3%" filterUnits="objectBoundingBox" id="filter-5">
            <feGaussianBlur stdDeviation="3.62209564 -14.5561129" in="SourceGraphic"></feGaussianBlur>
        </filter>
        <filter x="-59.6%" y="-59.6%" width="219.1%" height="219.1%" filterUnits="objectBoundingBox" id="filter-6">
            <feOffset dx="5" dy="6" in="SourceAlpha" result="shadowOffsetOuter1"></feOffset>
            <feGaussianBlur stdDeviation="7.5" in="shadowOffsetOuter1" result="shadowBlurOuter1"></feGaussianBlur>
            <feColorMatrix values="0 0 0 0 0   0 0 0 0 0.0666666667   0 0 0 0 0.17254902  0 0 0 0.16 0" type="matrix" in="shadowBlurOuter1" result="shadowMatrixOuter1"></feColorMatrix>
            <feMerge>
                <feMergeNode in="shadowMatrixOuter1"></feMergeNode>
                <feMergeNode in="SourceGraphic"></feMergeNode>
            </feMerge>
        </filter>
        <radialGradient cx="50.1974699%" cy="58.1493291%" fx="50.1974699%" fy="58.1493291%" r="60.0294397%" gradientTransform="translate(0.501975,0.581493),scale(0.909552,1.000000),translate(-0.501975,-0.581493)" id="radialGradient-7">
            <stop stop-color="#FFB900" offset="0%"></stop>
            <stop stop-color="#F95D8F" offset="60%"></stop>
            <stop stop-color="#F95353" offset="99.9%"></stop>
            <stop stop-color="#F95353" offset="100%"></stop>
        </radialGradient>
        <path d="M1.30333333,47.1711364 C1.30299584,52.1938988 4.01309602,56.8353007 8.41276536,59.3469709 C12.8124347,61.858641 18.2332587,61.858997 22.6332655,59.3479046 C27.0332722,56.8368122 29.743996,52.1957663 29.7443333,47.1730038 C29.7448548,39.4084859 23.378543,33.1136826 15.5247778,33.1131669 C7.67101258,33.1126512 1.30385505,39.4066185 1.30333333,47.1711364 M38.2556667,47.1711364 C38.2556666,52.1935653 40.9658985,56.834481 45.3654444,59.3456955 C49.7649902,61.85691 55.1854542,61.85691 59.5850001,59.3456955 C63.9845459,56.834481 66.6947779,52.1935653 66.6947778,47.1711364 C66.6947778,39.4045189 60.3292222,33.1131667 52.4752222,33.1131667 C44.6212222,33.1131667 38.2556667,39.4045189 38.2556667,47.1711364 M19.7785556,15.5332348 C19.6589604,20.6328996 22.3422448,25.3966757 26.7903492,27.9816411 C31.2384535,30.5666066 36.7537293,30.5673309 41.2025281,27.9835338 C45.6513269,25.3997368 48.3358914,20.6366656 48.2176667,15.5369697 C48.0641214,7.88179361 41.743707,1.75506799 33.9990182,1.75405096 C26.2543294,1.75303394 19.932269,7.87809936 19.7766667,15.5332348" id="path-8"></path>
        <filter x="-77.9%" y="-77.9%" width="255.8%" height="255.8%" filterUnits="objectBoundingBox" id="filter-10">
            <feOffset dx="5" dy="6" in="SourceAlpha" result="shadowOffsetOuter1"></feOffset>
            <feGaussianBlur stdDeviation="7.5" in="shadowOffsetOuter1" result="shadowBlurOuter1"></feGaussianBlur>
            <feColorMatrix values="0 0 0 0 0   0 0 0 0 0.0666666667   0 0 0 0 0.17254902  0 0 0 0.16 0" type="matrix" in="shadowBlurOuter1" result="shadowMatrixOuter1"></feColorMatrix>
            <feMerge>
                <feMergeNode in="shadowMatrixOuter1"></feMergeNode>
                <feMergeNode in="SourceGraphic"></feMergeNode>
            </feMerge>
        </filter>
        <linearGradient x1="65.7970456%" y1="66.6866128%" x2="2.10470459%" y2="5.57397386%" id="linearGradient-11">
            <stop stop-color="#905CFB" offset="0%"></stop>
            <stop stop-color="#A554E6" offset="7%"></stop>
            <stop stop-color="#D641B5" offset="25%"></stop>
            <stop stop-color="#F43597" offset="39%"></stop>
            <stop stop-color="#FF318C" offset="47%"></stop>
        </linearGradient>
        <filter x="-77.9%" y="-77.9%" width="255.8%" height="255.8%" filterUnits="objectBoundingBox" id="filter-12">
            <feOffset dx="5" dy="6" in="SourceAlpha" result="shadowOffsetOuter1"></feOffset>
            <feGaussianBlur stdDeviation="7.5" in="shadowOffsetOuter1" result="shadowBlurOuter1"></feGaussianBlur>
            <feColorMatrix values="0 0 0 0 0   0 0 0 0 0.0666666667   0 0 0 0 0.17254902  0 0 0 0.16 0" type="matrix" in="shadowBlurOuter1" result="shadowMatrixOuter1"></feColorMatrix>
            <feMerge>
                <feMergeNode in="shadowMatrixOuter1"></feMergeNode>
                <feMergeNode in="SourceGraphic"></feMergeNode>
            </feMerge>
        </filter>
        <filter x="-101.0%" y="-104.2%" width="302.1%" height="308.4%" filterUnits="objectBoundingBox" id="filter-13">
            <feGaussianBlur stdDeviation="7.93211298 15.0360096" in="SourceGraphic"></feGaussianBlur>
        </filter>
        <filter x="-67.5%" y="-67.5%" width="235.0%" height="235.0%" filterUnits="objectBoundingBox" id="filter-14">
            <feOffset dx="5" dy="6" in="SourceAlpha" result="shadowOffsetOuter1"></feOffset>
            <feGaussianBlur stdDeviation="7.5" in="shadowOffsetOuter1" result="shadowBlurOuter1"></feGaussianBlur>
            <feColorMatrix values="0 0 0 0 0   0 0 0 0 0.0666666667   0 0 0 0 0.17254902  0 0 0 0.16 0" type="matrix" in="shadowBlurOuter1" result="shadowMatrixOuter1"></feColorMatrix>
            <feMerge>
                <feMergeNode in="shadowMatrixOuter1"></feMergeNode>
                <feMergeNode in="SourceGraphic"></feMergeNode>
            </feMerge>
        </filter>
        <filter x="-96.4%" y="-96.4%" width="292.9%" height="292.9%" filterUnits="objectBoundingBox" id="filter-15">
            <feOffset dx="5" dy="6" in="SourceAlpha" result="shadowOffsetOuter1"></feOffset>
            <feGaussianBlur stdDeviation="7.5" in="shadowOffsetOuter1" result="shadowBlurOuter1"></feGaussianBlur>
            <feColorMatrix values="0 0 0 0 0   0 0 0 0 0.0666666667   0 0 0 0 0.17254902  0 0 0 0.16 0" type="matrix" in="shadowBlurOuter1" result="shadowMatrixOuter1"></feColorMatrix>
            <feMerge>
                <feMergeNode in="shadowMatrixOuter1"></feMergeNode>
                <feMergeNode in="SourceGraphic"></feMergeNode>
            </feMerge>
        </filter>
        <linearGradient x1="108.63338%" y1="13.5040801%" x2="46.9265964%" y2="79.0258241%" id="linearGradient-16">
            <stop stop-color="#0052CC" offset="18%"></stop>
            <stop stop-color="#2684FF" offset="100%"></stop>
        </linearGradient>
        <filter x="-74.3%" y="-71.9%" width="248.6%" height="243.8%" filterUnits="objectBoundingBox" id="filter-17">
            <feGaussianBlur stdDeviation="2.87876916 17.7683057" in="SourceGraphic"></feGaussianBlur>
        </filter>
        <linearGradient x1="67.660208%" y1="40.4117523%" x2="40.776569%" y2="81.7764653%" id="linearGradient-18">
            <stop stop-color="#0052CC" offset="18%"></stop>
            <stop stop-color="#2684FF" offset="100%"></stop>
        </linearGradient>
        <filter x="-221.5%" y="-143.9%" width="542.9%" height="387.8%" filterUnits="objectBoundingBox" id="filter-19">
            <feGaussianBlur stdDeviation="2.87876916 17.7683057" in="SourceGraphic"></feGaussianBlur>
        </filter>
        <linearGradient x1="1039.81621%" y1="-951.160127%" x2="1696.45099%" y2="-1607.78572%" id="linearGradient-20">
            <stop stop-color="#0052CC" offset="18%"></stop>
            <stop stop-color="#2684FF" offset="100%"></stop>
        </linearGradient>
        <filter x="-221.6%" y="-143.7%" width="543.3%" height="387.3%" filterUnits="objectBoundingBox" id="filter-21">
            <feGaussianBlur stdDeviation="2.87876916 17.7683057" in="SourceGraphic"></feGaussianBlur>
        </filter>
        <filter x="-52.6%" y="-52.6%" width="205.2%" height="205.2%" filterUnits="objectBoundingBox" id="filter-22">
            <feOffset dx="5" dy="6" in="SourceAlpha" result="shadowOffsetOuter1"></feOffset>
            <feGaussianBlur stdDeviation="7.5" in="shadowOffsetOuter1" result="shadowBlurOuter1"></feGaussianBlur>
            <feColorMatrix values="0 0 0 0 0   0 0 0 0 0.0666666667   0 0 0 0 0.17254902  0 0 0 0.16 0" type="matrix" in="shadowBlurOuter1" result="shadowMatrixOuter1"></feColorMatrix>
            <feMerge>
                <feMergeNode in="shadowMatrixOuter1"></feMergeNode>
                <feMergeNode in="SourceGraphic"></feMergeNode>
            </feMerge>
        </filter>
        <filter x="-50.0%" y="-50.0%" width="200.0%" height="200.0%" filterUnits="objectBoundingBox" id="filter-23">
            <feOffset dx="5" dy="6" in="SourceAlpha" result="shadowOffsetOuter1"></feOffset>
            <feGaussianBlur stdDeviation="7.5" in="shadowOffsetOuter1" result="shadowBlurOuter1"></feGaussianBlur>
            <feColorMatrix values="0 0 0 0 0   0 0 0 0 0.0666666667   0 0 0 0 0.17254902  0 0 0 0.16 0" type="matrix" in="shadowBlurOuter1" result="shadowMatrixOuter1"></feColorMatrix>
            <feMerge>
                <feMergeNode in="shadowMatrixOuter1"></feMergeNode>
                <feMergeNode in="SourceGraphic"></feMergeNode>
            </feMerge>
        </filter>
        <linearGradient x1="50%" y1="100%" x2="50%" y2="3.061617e-15%" id="linearGradient-24">
            <stop stop-color="#F2F3F8" offset="0%"></stop>
            <stop stop-color="#FEFEFE" offset="100%"></stop>
        </linearGradient>
        <linearGradient x1="50%" y1="-2.48949813e-15%" x2="50%" y2="100%" id="linearGradient-25">
            <stop stop-color="#0099FF" offset="0%"></stop>
            <stop stop-color="#4C76F9" offset="100%"></stop>
        </linearGradient>
        <filter x="-112.2%" y="-121.8%" width="324.3%" height="343.5%" filterUnits="objectBoundingBox" id="filter-26">
            <feGaussianBlur stdDeviation="8.14488518 17.165688" in="SourceGraphic"></feGaussianBlur>
        </filter>
        <filter x="-304.5%" y="-197.9%" width="709.1%" height="495.8%" filterUnits="objectBoundingBox" id="filter-27">
            <feGaussianBlur stdDeviation="8.14488518 17.165688" in="SourceGraphic"></feGaussianBlur>
        </filter>
        <filter x="-253.6%" y="-197.9%" width="607.3%" height="495.8%" filterUnits="objectBoundingBox" id="filter-28">
            <feGaussianBlur stdDeviation="8.14488518 17.165688" in="SourceGraphic"></feGaussianBlur>
        </filter>
        <filter x="-224.3%" y="-197.9%" width="548.6%" height="495.8%" filterUnits="objectBoundingBox" id="filter-29">
            <feGaussianBlur stdDeviation="8.14488518 17.165688" in="SourceGraphic"></feGaussianBlur>
        </filter>
        <filter x="-434.6%" y="-316.4%" width="969.1%" height="732.8%" filterUnits="objectBoundingBox" id="filter-30">
            <feGaussianBlur stdDeviation="8.14488518 17.165688" in="SourceGraphic"></feGaussianBlur>
        </filter>
        <filter x="-253.6%" y="-197.9%" width="607.3%" height="495.8%" filterUnits="objectBoundingBox" id="filter-31">
            <feGaussianBlur stdDeviation="8.14488518 17.165688" in="SourceGraphic"></feGaussianBlur>
        </filter>
        <filter x="-224.3%" y="-197.9%" width="548.6%" height="495.8%" filterUnits="objectBoundingBox" id="filter-32">
            <feGaussianBlur stdDeviation="8.14488518 17.165688" in="SourceGraphic"></feGaussianBlur>
        </filter>
        <filter x="-434.6%" y="-316.4%" width="969.1%" height="732.8%" filterUnits="objectBoundingBox" id="filter-33">
            <feGaussianBlur stdDeviation="8.14488518 17.165688" in="SourceGraphic"></feGaussianBlur>
        </filter>
        <filter x="-77.9%" y="-77.9%" width="255.8%" height="255.8%" filterUnits="objectBoundingBox" id="filter-34">
            <feOffset dx="5" dy="6" in="SourceAlpha" result="shadowOffsetOuter1"></feOffset>
            <feGaussianBlur stdDeviation="7.5" in="shadowOffsetOuter1" result="shadowBlurOuter1"></feGaussianBlur>
            <feColorMatrix values="0 0 0 0 0   0 0 0 0 0.0666666667   0 0 0 0 0.17254902  0 0 0 0.16 0" type="matrix" in="shadowBlurOuter1" result="shadowMatrixOuter1"></feColorMatrix>
            <feMerge>
                <feMergeNode in="shadowMatrixOuter1"></feMergeNode>
                <feMergeNode in="SourceGraphic"></feMergeNode>
            </feMerge>
        </filter>
    </defs>
    <g id="Page-1" stroke="none" stroke-width="1" fill="none" fill-rule="evenodd">
        <g id="0099.-SignUp-#01" transform="translate(22.000000, 52.000000)">
            <g id="Group" transform="translate(1.000000, 0.000000)">
                <g id="tasktrackers" transform="translate(260.000000, 243.000000) rotate(-360.000000) translate(-260.000000, -243.000000) translate(15.000000, 23.000000)">
                    <g id="Group-4" transform="translate(257.500000, 227.000000) rotate(-15.000000) translate(-257.500000, -227.000000) translate(75.000000, 38.000000)">
                        <path d="M22.5,202 L67.5,202 C71.6421356,202 75,205.357864 75,209.5 L75,254.5 C75,258.642136 71.6421356,262 67.5,262 L22.5,262 C18.3578644,262 15,258.642136 15,254.5 L15,209.5 C15,205.357864 18.3578644,202 22.5,202 Z" id="Path" fill-opacity="0.4" fill="url(#linearGradient-1)" filter="url(#filter-2)"></path>
                        <path d="M52.4324324,210 L63.4324324,210 C65.4027456,210 67,211.602007 67,213.578182 L67,232.512727 C67,234.488903 65.4027456,236.090909 63.4324324,236.090909 L52.4324324,236.090909 C50.4621193,236.090909 48.8648649,234.488903 48.8648649,232.512727 L48.8648649,213.578182 C48.8648649,211.602727 50.4609797,210 52.4324324,210 Z M26.5675676,210 L37.5675676,210 C39.5378807,210 41.1351351,211.602007 41.1351351,213.578182 L41.1351351,247.421818 C41.1351351,249.397993 39.5378807,251 37.5675676,251 L26.5675676,251 C24.5972544,251 23,249.397993 23,247.421818 L23,213.578182 C23,211.602727 24.597973,210 26.5675676,210 L26.5675676,210 Z" id="Shape" fill-opacity="0.4" fill="#FFFFFF" fill-rule="nonzero" filter="url(#filter-3)"></path>
                        <g id="Logo/tracker/trello" filter="url(#filter-4)" transform="translate(20.000000, 222.000000)">
                            <g id="trello-19f8a52c7c7f889a6b86e3bb8ee63534e1e5fa25086744687f076af0e5b33706">
                                <path d="M7.5,0 L52.5,0 C56.6421356,0 60,3.35786438 60,7.5 L60,52.5 C60,56.6421356 56.6421356,60 52.5,60 L7.5,60 C3.35786438,60 0,56.6421356 0,52.5 L0,7.5 C0,3.35786438 3.35786438,0 7.5,0 Z" id="Path" fill="url(#linearGradient-1)"></path>
                                <path d="M37.5,7.8 L48.6,7.8 C50.5882251,7.8 52.2,9.4117749 52.2,11.4 L52.2,30.45 C52.2,32.4382251 50.5882251,34.05 48.6,34.05 L37.5,34.05 C35.5117749,34.05 33.9,32.4382251 33.9,30.45 L33.9,11.4 C33.9,9.4125 35.510625,7.8 37.5,7.8 Z M11.4,7.8 L22.5,7.8 C24.4882251,7.8 26.1,9.4117749 26.1,11.4 L26.1,45.45 C26.1,47.4382251 24.4882251,49.05 22.5,49.05 L11.4,49.05 C9.4117749,49.05 7.8,47.4382251 7.8,45.45 L7.8,11.4 C7.8,9.4125 9.4125,7.8 11.4,7.8 L11.4,7.8 Z" id="Shape" fill="#FFFFFF" fill-rule="nonzero"></path>
                            </g>
                        </g>
                        <path d="M102,242.417085 C101.999663,247.439848 104.709763,252.08125 109.109432,254.59292 C113.509101,257.10459 118.929925,257.104946 123.329932,254.593854 C127.729939,252.082761 130.440663,247.441715 130.441,242.418953 C130.441521,234.654435 124.07521,228.359632 116.221444,228.359116 C108.367679,228.3586 102.000522,234.652568 102,242.417085 M138.952333,242.417085 C138.952333,247.439514 141.662565,252.08043 146.062111,254.591645 C150.461657,257.102859 155.882121,257.102859 160.281667,254.591645 C164.681213,252.08043 167.391445,247.439514 167.391444,242.417085 C167.391444,234.650468 161.025889,228.359116 153.171889,228.359116 C145.317889,228.359116 138.952333,234.650468 138.952333,242.417085 M120.475222,210.779184 C120.355627,215.878849 123.038912,220.642625 127.487016,223.22759 C131.93512,225.812556 137.450396,225.81328 141.899195,223.229483 C146.347994,220.645686 149.032558,215.882615 148.914333,210.782919 C148.760788,203.127743 142.440374,197.001017 134.695685,197 C126.950996,196.998983 120.628936,203.124048 120.473333,210.779184" id="a" fill="#FF4C77" opacity="0.376883371" filter="url(#filter-5)"></path>
                        <g id="Logo/tracker/trello" filter="url(#filter-6)" transform="translate(137.851239, 242.288898) rotate(4.000000) translate(-137.851239, -242.288898) translate(103.851239, 208.288898)">
                            <g id="asana-fdf167fc932f88e8d5083cb3559b373cad45d248c5ad26ebf93be901da06f78d">
                                <mask id="mask-9" fill="white">
                                    <use xlink:href="#path-8"></use>
                                </mask>
                                <use id="a" fill="url(#radialGradient-7)" xlink:href="#path-8"></use>
                            </g>
                        </g>
                        <g id="Logo/tracker/trello" filter="url(#filter-10)" transform="translate(80.056761, 137.410322) rotate(2.000000) translate(-80.056761, -137.410322) translate(54.056761, 111.410322)" fill-rule="nonzero">
                            <g id="youtrack-seeklogo.com">
                                <path d="M16.983437,19.9458848 C25.5848651,12.0993883 35.1405078,3.35227319 35.4173343,3.07544681 C35.8480669,2.63684777 36.3096071,2.22960634 36.7984252,1.85683724 C40.4279312,-0.818188103 45.4361001,-0.580732293 48.7962274,2.42569742 C52.1563547,5.43212715 52.9471004,10.3831737 50.6905742,14.2866549 C50.2822436,15.0030067 49.7764306,15.6591965 49.1876225,16.2364302 C47.2784674,18.1455852 39.96681,25.9040661 39.96681,25.9040661 C39.96681,25.9040661 49.5532054,35.1248785 49.7156865,35.2467395 C52.0914475,37.1496456 52.6984065,40.5139335 51.1373978,43.1270814 C50.2021067,44.6696595 48.6482415,45.735167 46.8722644,46.0517444 C46.3445097,46.1448776 39.373983,39.4357913 31.6761153,34.007595 C26.8096924,39.4672818 17.1279779,50.325002 17.0975704,50.325002 C12.9867941,53.2009205 7.95799857,51.6167281 5.6832607,50.3656223 C2.52682519,48.5226668 0.4384917,45.2849339 0.0612924005,41.6493746 C-0.315906898,38.0138155 1.06325285,34.4163207 3.7741057,31.9646178 C5.11457623,30.7460081 10.8014209,25.5872277 16.9757094,19.9410033 L16.983437,19.9458848 Z" id="Path" fill="#0CB0F2"></path>
                                <path d="M34.0847831,22.7475428 C33.8066042,20.8429735 32.7958048,19.1222773 31.2676878,17.951967 L16.2947435,2.7999012 C13.7602088,0.261781229 10.016422,-0.640609708 6.60384595,0.464036807 C3.19126986,1.56868332 0.686425641,4.49374813 0.119986031,8.03564954 C-0.446453578,11.5775509 1.02120583,15.1379195 3.91906381,17.2517641 L21.9940697,29.8717006 C24.4371745,31.7719872 27.792841,31.9880673 30.4594875,30.4168109 C33.1261338,28.8455546 34.5631904,25.8054794 34.0847831,22.7475428 L34.0847831,22.7475428 Z" id="Path" fill="url(#linearGradient-11)"></path>
                                <rect id="Rectangle" fill="#000000" x="9.72045114" y="9.90502386" width="32.374525" height="32.374525"></rect>
                                <path d="M12.9983718,35.7237075 L24.8555415,35.7237075 L24.8555415,37.8685198 L12.9983718,37.8685198 L12.9983718,35.7237075 Z M17.3284645,22.7334295 L11.8652634,14.1541803 L15.5073975,14.1541803 L18.9067226,19.8601903 L22.346516,14.1541803 L25.8996201,14.1541803 L20.4364188,22.6929613 L20.4364188,28.3585031 L17.3203709,28.3585031 L17.3203709,22.7334295 L17.3284645,22.7334295 Z M30.6829561,17.0274194 L26.3528633,17.0274194 L26.3528633,14.1541803 L38.0886287,14.1541803 L38.0886287,17.0274194 L33.7990041,17.0274194 L33.7990041,28.3180349 L30.6829561,28.3180349 L30.6829561,17.0274194 Z" id="Shape" fill="#FFFFFF"></path>
                            </g>
                        </g>
                        <g id="Logo/tracker/trello" filter="url(#filter-12)" transform="translate(312.804369, 199.461813) rotate(15.000000) translate(-312.804369, -199.461813) translate(286.804369, 173.461813)" fill="#459EF7" fill-rule="nonzero">
                            <g id="Shape-2">
                                <path d="M32.8043529,1.52482353 C32.3011765,8.84305882 31.0378824,15.4042353 29.3998824,20.9544706 C28.7326756,23.4073209 27.888784,25.8086551 26.8748235,28.1396471 C26.3655294,29.406 25.8654118,30.16 25.6115294,30.6631765 C25.1083529,31.4202353 24.2258824,31.6710588 23.4703529,31.1709412 L17.7901176,27.8888235 C17.0330588,27.3856471 16.7837647,26.5016471 17.2823529,25.7445882 C17.7901176,24.9875294 18.6695294,24.7367059 19.4296471,25.2414118 L23.5911765,27.7649412 C23.5911765,27.7649412 23.5911765,27.6395294 23.9704706,27.0063529 C24.8590588,25.1144706 25.6115294,22.9687059 26.3655294,20.3243529 C28.0111765,14.6471765 29.146,8.46529412 29.6491765,1.274 L26.4955294,1.274 C5.17247059,1.274 1.26023529,7.58129412 1.26023529,24.9875294 C1.26023529,40.0002353 5.17247059,50.2151765 26.4955294,50.2151765 C47.8185882,50.2151765 51.7308235,40.0002353 51.7308235,24.9875294 C51.7308235,9.47317647 48.5771765,2.78964706 32.8043529,1.52482353 Z M13.8778824,15.4042353 C13.8766153,14.0810585 14.948235,13.0073847 16.2714118,13.0061176 C17.5945886,13.0048506 18.6682624,14.0764703 18.6695294,15.3996471 C18.6707964,16.7228239 17.5991768,17.7964977 16.276,17.7977647 C14.9528232,17.7990317 13.8791494,16.7274121 13.8778824,15.4042353 Z M37.2228235,36.3418824 C37.0958824,36.5927059 36.9674118,36.8465882 36.5896471,37.2258824 C36.0895294,37.8544706 35.4563529,38.3591765 34.6977647,38.8669412 C32.5565882,40.2541176 29.7807059,41.132 26.4970588,41.132 C23.0925882,41.132 20.4375294,40.2541176 18.2963529,38.8669412 C17.5377647,38.3591765 16.9045882,37.7290588 16.4044706,37.2258824 C16.1505882,36.8465882 15.8982353,36.5927059 15.7712941,36.3418824 C15.2681176,35.5848235 15.5174118,34.5769412 16.2775294,34.0722353 C17.0345882,33.5690588 17.9185882,33.8183529 18.4217647,34.5769412 C18.4217647,34.7023529 18.5502353,34.8277647 18.6710588,34.9562353 C19.1803529,35.4594118 19.5596471,35.7132941 20.0597647,36.0925882 C21.7054118,37.2258824 23.8465882,37.8544706 26.4970588,37.8544706 C29.1475294,37.8544706 31.2887059,37.1004706 32.9343529,36.0925882 C33.5629412,35.7132941 33.9422353,35.3355294 34.3230588,34.9562353 C34.4438824,34.8277647 34.4438824,34.7023529 34.5723529,34.5769412 C35.0755294,33.9483529 35.9595294,33.6944706 36.7165882,34.1976471 C37.4767059,34.5754118 37.726,35.5848235 37.2228235,36.3418824 L37.2228235,36.3418824 Z M36.7165882,17.8008235 C35.4563529,17.8008235 34.3230588,16.7929412 34.3230588,15.4057647 C34.3230588,14.0185882 35.4563529,13.0076471 36.7165882,13.0076471 C38.1037647,13.0076471 39.1131765,14.0185882 39.1131765,15.4057647 C39.1131765,16.7929412 37.9768235,17.8008235 36.7165882,17.8008235 Z" id="Shape"></path>
                            </g>
                        </g>
                        <path d="M340.178035,155.49164 C339.674859,162.809876 338.411565,169.371052 336.773565,174.921287 C336.106358,177.374138 335.262467,179.775472 334.248506,182.106464 C333.739212,183.372817 333.239094,184.126817 332.985212,184.629993 C332.482035,185.387052 331.599565,185.637876 330.844035,185.137758 L325.1638,181.85564 C324.406741,181.352464 324.157447,180.468464 324.656035,179.711405 C325.1638,178.954346 326.043212,178.703523 326.80333,179.208229 L330.964859,181.731758 C330.964859,181.731758 330.964859,181.606346 331.344153,180.97317 C332.232741,179.081287 332.985212,176.935523 333.739212,174.29117 C335.384859,168.613993 336.519682,162.432111 337.022859,155.240817 L333.869212,155.240817 C312.546153,155.240817 308.633918,161.548111 308.633918,178.954346 C308.633918,193.967052 312.546153,204.181993 333.869212,204.181993 C355.192271,204.181993 359.104506,193.967052 359.104506,178.954346 C359.104506,163.439993 355.950859,156.756464 340.178035,155.49164 Z M321.251565,169.371052 C321.250298,168.047875 322.321917,166.974201 323.645094,166.972934 C324.968271,166.971667 326.041945,168.043287 326.043212,169.366464 C326.044479,170.689641 324.972859,171.763314 323.649682,171.764581 C322.326506,171.765848 321.252832,170.694229 321.251565,169.371052 Z M344.596506,190.308699 C344.469565,190.559523 344.341094,190.813405 343.96333,191.192699 C343.463212,191.821287 342.830035,192.325993 342.071447,192.833758 C339.930271,194.220934 337.154388,195.098817 333.870741,195.098817 C330.466271,195.098817 327.811212,194.220934 325.670035,192.833758 C324.911447,192.325993 324.278271,191.695876 323.778153,191.192699 C323.524271,190.813405 323.271918,190.559523 323.144977,190.308699 C322.6418,189.55164 322.891094,188.543758 323.651212,188.039052 C324.408271,187.535876 325.292271,187.78517 325.795447,188.543758 C325.795447,188.66917 325.923918,188.794581 326.044741,188.923052 C326.554035,189.426229 326.93333,189.680111 327.433447,190.059405 C329.079094,191.192699 331.220271,191.821287 333.870741,191.821287 C336.521212,191.821287 338.662388,191.067287 340.308035,190.059405 C340.936624,189.680111 341.315918,189.302346 341.696741,188.923052 C341.817565,188.794581 341.817565,188.66917 341.946035,188.543758 C342.449212,187.91517 343.333212,187.661287 344.090271,188.164464 C344.850388,188.542229 345.099682,189.55164 344.596506,190.308699 Z M344.090271,171.76764 C342.830035,171.76764 341.696741,170.759758 341.696741,169.372581 C341.696741,167.985405 342.830035,166.974464 344.090271,166.974464 C345.477447,166.974464 346.486859,167.985405 346.486859,169.372581 C346.486859,170.759758 345.350506,171.76764 344.090271,171.76764 Z" id="Path-2" fill-opacity="0.639286495" fill="#459EF7" fill-rule="nonzero" opacity="0.587425595" filter="url(#filter-13)" transform="translate(333.869212, 179.711405) rotate(15.000000) translate(-333.869212, -179.711405) "></path>
                        <g id="Logo/tracker/trello" filter="url(#filter-14)" transform="translate(218.134089, 232.502038) rotate(31.000000) translate(-218.134089, -232.502038) translate(188.134089, 202.502038)">
                            <g id="basecamp-4d8379c92e560209dd3bbb3c27dee5599a96f263012ed88a33a83862db0e68d8" transform="translate(0.000000, 5.625000)">
                                <path d="M30,0.5025 C14.496,0.5025 2.352,20.226 1.203,36.885 C6.066,45.3285 17.799,48.5025 30,48.5025 C42.201,48.5025 53.931,45.3285 58.7955,36.885 C57.648,20.226 45.504,0.5025 30,0.5025 Z" id="Path" fill="#B3DCFF"></path>
                                <path d="M47.949,21.21 C44.544,16.8225 40.2075,12.1785 37.6875,12.1785 C35.1735,12.1785 28.143,24.6285 24.9165,24.6285 C21.6915,24.6285 20.0145,18.963 16.047,18.984 C10.644,19.0155 5.3475,34.899 5.3475,34.899 C5.3475,34.899 7.5375,44.6115 30.45,44.6115 C53.364,44.6115 55.1955,35.061 55.1955,35.061 C55.1955,35.061 52.839,27.519 47.949,21.21 Z" id="Path" fill="#5ECC62"></path>
                                <path d="M17.7195,33.543 C17.7203284,31.9391651 19.0211651,30.6396716 20.625,30.6405 C22.2288349,30.6413284 23.5283284,31.9421651 23.5275,33.546 C23.5266715,35.1498349 22.2258349,36.4493284 20.622,36.4484999 C19.0181651,36.4476715 17.7186716,35.1468349 17.7195,33.543 L17.7195,33.543 Z M36.474,33.543 C36.4731716,35.1460065 37.7719935,36.4461716 39.375,36.447 C40.9780065,36.4478284 42.2781716,35.1490065 42.279,33.546 C42.2795359,32.5090366 41.7268177,31.5505571 40.829049,31.0316113 C39.9312804,30.5126655 38.8248536,30.5120937 37.926549,31.0301113 C37.0282445,31.5481289 36.4745359,32.5060366 36.474,33.543 L36.474,33.543 Z M35.952,37.758 C36.1806459,37.3210047 36.0117453,36.7813959 35.57475,36.55275 C35.1377547,36.3241041 34.5981459,36.4930047 34.3695,36.93 C34.32,37.02 33.1545,39.117 30.072,39.117 C27.0405,39.117 25.665,36.981 25.602,36.882 C25.3404735,36.4732251 24.800256,36.3483188 24.3858361,36.6008049 C23.9714163,36.853291 23.8346761,37.3906351 24.078,37.8105 C24.153,37.938 26.001,40.905 30.0735,40.905 C34.275,40.905 35.8845,37.8855 35.952,37.758 L35.952,37.758 Z" id="Shape" fill="#000000" fill-rule="nonzero"></path>
                                <path d="M25.2765,29.94 C21.717,29.94 19.893,26.43 18.9045,24.261 C18.015,22.311 17.8605,19.227 15.3375,19.14 C15.5865,19.0425 15.8235,18.984 16.0485,18.984 C20.016,18.984 21.693,24.6285 24.918,24.6285 C28.143,24.6285 35.175,12.1785 37.689,12.1785 C38.1645,12.1785 38.7,12.3465 39.279,12.6435 C38.85,12.585 38.3025,12.6255 37.878,13.0515 C37.062,13.8645 29.682,29.94 25.2765,29.94 Z" id="Path" fill="#00AD45"></path>
                            </g>
                        </g>
                        <g id="Logo/tracker/trello" filter="url(#filter-15)" transform="translate(254.390573, 297.690264) rotate(38.000000) translate(-254.390573, -297.690264) translate(233.390573, 276.690264)">
                            <g id="bitbucket-seeklogo.com" transform="translate(0.000000, 2.625000)">
                                <polygon id="Path" points="16.6149519 25.1379383 25.3838668 25.1379383 27.5005016 12.7273298 14.2832941 12.7273298"></polygon>
                                <path d="M1.36305269,0.000112621865 C0.965512692,-0.00503686282 0.586052025,0.166627523 0.326460822,0.469056893 C0.0668696189,0.771486263 -0.0462797345,1.17372321 0.0173650183,1.56786788 L5.72980918,36.396362 C5.87672469,37.2761263 6.63139733,37.9229395 7.51957377,37.9303294 L34.9245031,37.9303294 C35.5911472,37.9389467 36.1635742,37.4560263 36.2701909,36.7950583 L41.982635,1.57462545 C42.0462797,1.18048078 41.9331304,0.77824383 41.6735393,0.475814458 C41.4139479,0.173385088 41.0344873,0.00172070296 40.6369473,0.00687018764 L1.36305269,0.000112621865 Z M25.4172197,25.1720451 L16.6702499,25.1720451 L14.3018396,12.7448817 L27.5366779,12.7448817 L25.4172197,25.1720451 Z" id="Shape" fill="#2684FF" fill-rule="nonzero"></path>
                                <path d="M40.1314633,12.7273298 L27.5122601,12.7273298 L25.3944928,25.1445789 L16.6545013,25.1445789 L6.33458823,37.4470411 C6.66168389,37.7311068 7.07871624,37.8890685 7.51112555,37.8926846 L34.9009144,37.8926846 C35.5670265,37.9012949 36.138997,37.41876 36.2455285,36.7583192 L40.1314633,12.7273298 Z" id="Path" fill="url(#linearGradient-16)" fill-rule="nonzero"></path>
                            </g>
                        </g>
                        <path d="M73.7874756,37.457561 L41.4625,5.13258537 L38.3299146,2 L13.9960366,26.332 L2.87047561,37.457561 C1.70984146,38.6200732 1.70984146,40.5 2.87047561,41.6625122 L25.1028171,63.8948537 L38.3299146,77.1219512 L62.6637927,52.7899512 L63.0394024,52.4124634 L73.7893537,41.6625122 C74.9499878,40.5 74.9499878,38.6200732 73.7874756,37.457561 Z M38.3299146,50.665878 L27.2250122,39.5609756 L38.3299146,28.4560732 L49.4348171,39.5609756 L38.3299146,50.665878 Z" id="Shape" fill="#2684FF" fill-rule="nonzero" opacity="0.633370536" filter="url(#filter-17)" transform="translate(38.329797, 39.560976) rotate(-3.000000) translate(-38.329797, -39.560976) "></path>
                        <path d="M37.3673164,29.1198064 C30.0955115,21.8461235 30.0598286,10.0688796 37.2884383,2.75200151 L12.982731,27.0464405 L26.2117066,40.2735381 L37.3673164,29.1198064 Z" id="Path" fill="url(#linearGradient-18)" filter="url(#filter-19)" transform="translate(25.175024, 21.512770) rotate(-3.000000) translate(-25.175024, -21.512770) "></path>
                        <path d="M50.4302818,38.8677469 L39.2934525,50.0026981 C46.5990623,57.3045517 46.6046964,69.1456493 39.3009647,76.4512591 C39.2990867,76.4531371 39.2953306,76.4568932 39.2934525,76.4587712 L63.6573793,52.0948444 L50.4302818,38.8677469 Z" id="Path" fill="url(#linearGradient-20)" filter="url(#filter-21)" transform="translate(51.475416, 57.663259) rotate(-3.000000) translate(-51.475416, -57.663259) "></path>
                        <g id="Logo/tracker/trello" filter="url(#filter-22)" transform="translate(41.983532, 56.074917) rotate(-3.000000) translate(-41.983532, -56.074917) translate(3.483532, 17.574917)">
                            <g id="jira-624d94b0bcbb4a9d7916837fd4389132bf7c333cb326d26479e242b03d3e3d2c">
                                <path d="M72.8945854,37.1102439 L40.5696098,4.78526829 L37.4370244,1.65268293 L13.1031463,25.9846829 L1.97758537,37.1102439 C0.81695122,38.2727561 0.81695122,40.1526829 1.97758537,41.3151951 L24.2099268,63.5475366 L37.4370244,76.7746341 L61.7709024,52.4426341 L62.1465122,52.0651463 L72.8964634,41.3151951 C74.0570976,40.1526829 74.0570976,38.2727561 72.8945854,37.1102439 Z M37.4370244,50.318561 L26.332122,39.2136585 L37.4370244,28.1087561 L48.5419268,39.2136585 L37.4370244,50.318561 Z" id="Shape" fill="#2684FF" fill-rule="nonzero"></path>
                                <path d="M37.4370244,28.1087561 C30.1652195,20.8350732 30.1295366,9.05782927 37.3581463,1.74095122 L13.052439,26.0353902 L26.2814146,39.2624878 L37.4370244,28.1087561 Z" id="Path" fill="url(#linearGradient-18)"></path>
                                <path d="M48.5719756,39.1836098 L37.4351463,50.318561 C44.7407561,57.6204146 44.7463902,69.4615122 37.4426585,76.767122 C37.4407805,76.769 37.4370244,76.7727561 37.4351463,76.7746341 L61.7990732,52.4107073 L48.5719756,39.1836098 Z" id="Path" fill="url(#linearGradient-20)"></path>
                            </g>
                        </g>
                        <g id="Logo/tracker/trello" filter="url(#filter-23)" transform="translate(140.311612, 323.545450) rotate(22.000000) translate(-140.311612, -323.545450) translate(98.811612, 282.045450)">
                            <path d="M10.375,0 L72.625,0 C78.3549543,-1.05257553e-15 83,4.64504572 83,10.375 L83,72.625 C83,78.3549543 78.3549543,83 72.625,83 L10.375,83 C4.64504572,83 7.01717017e-16,78.3549543 0,72.625 L0,10.375 C-7.01717017e-16,4.64504572 4.64504572,1.05257553e-15 10.375,0 Z" id="Rectangle" stroke="#E3E4E6" stroke-width="0.6" fill="url(#linearGradient-24)"></path>
                            <g id="Microsoft_To-Do_2017_App_Button" transform="translate(15.562500, 20.750000)" fill-rule="nonzero">
                                <g id="g3000" transform="translate(0.706515, 1.036153)">
                                    <g id="g3014">
                                        <g id="Group">
                                            <polygon id="path3004" fill="#8EBAFF" points="10.0815498 10.4082903 -3.07398551e-12 20.6989727 10.1222012 30.8455855 20.203751 20.7401354"></polygon>
                                            <polygon id="path2996" fill="url(#linearGradient-25)" points="20.4186227 41.1627306 10.1246673 30.8460202 40.8604758 3.64153152e-14 51.0814014 10.1142708"></polygon>
                                        </g>
                                    </g>
                                </g>
                            </g>
                        </g>
                        <path d="M252.971345,128.455518 C253.231079,129.254017 252.947964,130.128995 252.269698,130.623988 L227.654169,148.506812 L203.041463,130.623988 C202.362622,130.13134 202.078685,129.257295 202.338404,128.459753 L205.181698,119.706812 L210.817463,102.360459 C211.106875,101.468223 212.370404,101.468223 212.661227,102.360459 L218.294169,119.706812 L237.014169,119.706812 L242.649933,102.359047 C242.939345,101.466812 244.202875,101.466812 244.493698,102.359047 L250.126639,119.7054 L252.972757,128.456929" id="Path" fill-opacity="0.5" fill="#F36E2C" opacity="0.605236235" filter="url(#filter-26)" transform="translate(227.654946, 125.098341) rotate(22.000000) translate(-227.654946, -125.098341) "></path>
                        <polygon id="Path" fill-opacity="0.5" fill="#E2452A" opacity="0.605236235" filter="url(#filter-27)" transform="translate(224.281166, 133.450433) rotate(22.000000) translate(-224.281166, -133.450433) " points="224.279754 147.851139 214.922578 119.049727 233.639754 119.049727 224.279754 147.849727"></polygon>
                        <polygon id="Path" fill-opacity="0.5" fill="#F36E2C" opacity="0.605236235" filter="url(#filter-28)" transform="translate(213.862720, 129.240346) rotate(22.000000) translate(-213.862720, -129.240346) " points="225.09825 143.640346 202.625779 114.840346 215.741073 114.840346 225.099661 143.640346"></polygon>
                        <path d="M202.732754,114.290009 L225.208048,143.090009 L200.592518,125.207185 C199.913157,124.714916 199.628627,123.840798 199.888048,123.04295 L202.732754,114.290009 L202.732754,114.290009 Z" id="Path" fill-opacity="0.5" fill="#FAA328" opacity="0.605236235" filter="url(#filter-29)" transform="translate(212.500588, 128.690009) rotate(22.000000) translate(-212.500588, -128.690009) "></path>
                        <path d="M211.736997,114.791399 L217.375585,97.4450461 C217.663585,96.5528108 218.925702,96.5528108 219.217938,97.4450461 L224.853702,114.791399 L211.736997,114.791399 Z" id="Path" fill-opacity="0.5" fill="#E2452A" opacity="0.605236235" filter="url(#filter-30)" transform="translate(218.295350, 105.783634) rotate(22.000000) translate(-218.295350, -105.783634) "></path>
                        <polygon id="Path" fill-opacity="0.5" fill="#F36E2C" opacity="0.605236235" filter="url(#filter-31)" transform="translate(234.698178, 137.658417) rotate(22.000000) translate(-234.698178, -137.658417) " points="223.461942 152.058417 245.934413 123.258417 232.819119 123.258417 223.463354 152.058417"></polygon>
                        <path d="M245.828831,123.808852 L223.354949,152.608852 L247.967654,134.726029 C248.64389,134.231911 248.93189,133.356617 248.670713,132.561794 L245.827419,123.808852 L245.828831,123.808852 Z" id="Path" fill-opacity="0.5" fill="#FAA328" opacity="0.605236235" filter="url(#filter-32)" transform="translate(236.060552, 138.208852) rotate(22.000000) translate(-236.060552, -138.208852) "></path>
                        <path d="M254.365637,126.714995 L248.729873,109.368642 C248.437637,108.476406 247.174108,108.476406 246.884696,109.368642 L241.248931,126.714995 L254.365637,126.714995 Z" id="Path" fill-opacity="0.5" fill="#E2452A" opacity="0.605236235" filter="url(#filter-33)" transform="translate(247.807284, 117.707230) rotate(22.000000) translate(-247.807284, -117.707230) "></path>
                        <g id="Logo/tracker/trello" filter="url(#filter-34)" transform="translate(222.733796, 145.278380) rotate(22.000000) translate(-222.733796, -145.278380) translate(196.733796, 119.278380)">
                            <g id="Group" transform="translate(0.000000, 1.625000)">
                                <path d="M50.7289412,27.0070588 C50.9886746,27.8055586 50.7055602,28.680536 50.0272941,29.1755294 L25.4117647,47.0583529 L0.799058824,29.1755294 C0.120217741,28.6828817 -0.163718787,27.8088361 0.096,27.0112941 L2.93929412,18.2583529 L8.57505882,0.912 C8.86447059,0.0197647059 10.128,0.0197647059 10.4188235,0.912 L16.0517647,18.2583529 L34.7717647,18.2583529 L40.4075294,0.910588235 C40.6969412,0.0183529412 41.9604706,0.0183529412 42.2512941,0.910588235 L47.8842353,18.2569412 L50.7303529,27.0084706" id="Path" fill="#F36E2C"></path>
                                <polygon id="Path" fill="#E2452A" points="25.4117647 47.0583529 16.0545882 18.2569412 34.7717647 18.2569412 25.4117647 47.0569412"></polygon>
                                <polygon id="Path" fill="#F36E2C" points="25.4117647 47.0569412 2.93929412 18.2569412 16.0545882 18.2569412 25.4131765 47.0569412"></polygon>
                                <path d="M2.93929412,18.2569412 L25.4145882,47.0569412 L0.799058824,29.1741176 C0.119697382,28.6818485 -0.164832879,27.8077305 0.0945882353,27.0098824 L2.93929412,18.2569412 L2.93929412,18.2569412 Z" id="Path" fill="#FAA328"></path>
                                <path d="M2.94070588,18.2555294 L8.57929412,0.909176471 C8.86729412,0.0169411765 10.1294118,0.0169411765 10.4216471,0.909176471 L16.0574118,18.2555294 L2.94070588,18.2555294 Z" id="Path" fill="#E2452A"></path>
                                <polygon id="Path" fill="#F36E2C" points="25.4117647 47.0569412 47.8842353 18.2569412 34.7689412 18.2569412 25.4131765 47.0569412"></polygon>
                                <path d="M47.8856471,18.2569412 L25.4117647,47.0569412 L50.0244706,29.1741176 C50.7007059,28.68 50.9887059,27.8047059 50.7275294,27.0098824 L47.8842353,18.2569412 L47.8856471,18.2569412 Z" id="Path" fill="#FAA328"></path>
                                <path d="M47.8870588,18.2555294 L42.2512941,0.909176471 C41.9590588,0.0169411765 40.6955294,0.0169411765 40.4061176,0.909176471 L34.7703529,18.2555294 L47.8870588,18.2555294 Z" id="Path" fill="#E2452A"></path>
                            </g>
                        </g>
                    </g>
                    <g id="asana-fdf167fc932f88e8d5083cb3559b373cad45d248c5ad26ebf93be901da06f78d" transform="translate(213.174391, 267.506090) rotate(4.000000) translate(-213.174391, -267.506090) translate(180.174391, 237.006090)"></g>
                    <g id="Group" transform="translate(176.000000, 235.000000)">
                        <g id="Group-3"></g>
                    </g>
                    <g id="Group-2" transform="translate(75.000000, 38.000000)"></g>
                </g>
            </g>
        </g>
    </g>
</svg>